<svg xmlns="http://www.w3.org/2000/svg" xmlns:v="https://svgstorm.com"
viewBox = "0 0 1280 567"
width="1280"
height="567">
<g fill="None" fill-opacity="0.0" stroke="#000000" stroke-opacity="0.00" stroke-width="0.3"><path d="
M 0.00 567.00 
L 1280.00 567.00
L 1280.00 0.00
L 0.00 0.00
L 0.00 567.00
M 672.00 157.00 
C 672.77 157.80 673.37 158.01 674.00 159.00
C 674.24 159.25 674.97 159.65 675.00 160.00
C 675.05 160.50 675.00 161.00 675.00 161.00
C 675.12 161.26 675.97 161.65 676.00 162.00
C 676.05 162.49 676.00 163.00 676.00 163.00
C 690.48 173.12 698.35 191.80 710.25 204.75 C 722.16 217.69 733.25 233.96 744.00 248.00
C 744.98 249.28 745.99 250.82 747.00 252.00
C 758.78 265.72 769.42 280.89 781.00 295.00
C 782.03 296.25 783.00 297.80 784.00 299.00
C 792.14 308.80 801.13 319.19 808.00 330.00
C 808.29 330.23 808.73 330.80 809.00 331.00
C 813.09 334.07 814.98 339.32 818.00 343.00
C 819.27 344.55 822.46 345.37 822.00 348.00
C 824.82 339.93 821.36 331.38 822.00 323.00
C 821.91 318.31 822.77 312.91 823.00 309.00
C 822.42 293.82 823.00 277.84 823.00 262.00
C 822.70 258.86 822.70 255.08 823.00 252.00
C 823.00 232.09 823.00 213.95 823.00 194.00
C 822.76 191.54 821.78 188.17 822.00 185.00
C 823.07 169.22 819.97 151.43 823.00 136.00
C 825.38 123.86 840.68 140.33 847.25 146.75 C 853.82 153.17 865.47 161.85 872.08 168.92 C 878.70 175.98 893.62 184.10 895.00 194.00
C 895.45 197.19 895.00 200.77 895.00 204.00
C 895.00 208.33 895.00 212.67 895.00 217.00
C 895.00 221.00 895.00 225.00 895.00 229.00
C 895.00 244.30 895.11 259.70 895.00 275.00 C 894.89 290.30 895.29 305.74 895.00 321.00 C 894.71 336.26 895.68 351.82 895.00 367.00 C 894.32 382.18 896.51 398.01 895.00 413.00 C 893.49 427.99 898.34 444.44 895.00 459.00
C 894.75 460.07 893.69 462.14 893.00 463.00
C 887.94 469.26 869.75 466.00 862.00 466.00
C 856.52 466.00 848.20 466.85 843.00 466.00 C 837.80 465.15 827.46 468.58 824.00 465.00
C 817.19 464.79 814.11 450.59 808.70 446.30 C 803.28 442.02 798.50 432.94 793.70 427.30 C 788.89 421.66 783.56 414.35 778.75 408.25 C 773.93 402.16 768.71 395.31 764.08 388.92 C 759.45 382.53 753.26 376.77 748.75 370.25 C 744.24 363.72 738.01 357.86 734.00 351.00
C 733.61 350.33 733.38 349.84 733.00 349.00
C 720.47 331.47 705.87 313.88 692.00 297.00
C 689.98 294.55 687.85 291.41 686.00 289.00
C 676.10 276.09 665.54 262.44 655.00 250.00
C 654.13 248.97 653.52 247.29 652.00 247.00
C 651.33 317.84 653.34 389.99 651.00 460.00
C 649.28 464.66 647.48 464.17 643.00 465.00
C 632.30 466.99 619.03 466.15 608.00 466.00 C 596.97 465.85 582.27 470.15 580.00 457.00
C 575.82 432.73 580.00 404.91 580.00 380.00
C 579.73 377.18 579.73 373.76 580.00 371.00
C 580.00 366.33 580.00 361.67 580.00 357.00
C 579.73 354.18 579.73 350.76 580.00 348.00
C 580.00 343.00 580.00 338.00 580.00 333.00
C 579.70 329.86 579.70 326.08 580.00 323.00
C 580.00 313.49 580.00 305.44 580.00 296.00
C 579.70 292.86 579.70 289.08 580.00 286.00
C 580.00 281.67 580.00 277.33 580.00 273.00
C 579.73 270.18 579.73 266.76 580.00 264.00
C 580.00 248.05 578.46 233.37 580.00 217.00
C 579.95 216.77 579.05 216.35 579.00 216.00
C 578.57 212.98 578.71 209.04 579.00 206.00
C 579.39 201.85 580.00 197.49 580.00 193.00
C 579.70 189.86 579.70 186.08 580.00 183.00
C 580.00 178.67 580.00 174.33 580.00 170.00
C 579.73 167.18 579.73 163.76 580.00 161.00
C 580.00 153.44 579.32 145.52 580.00 138.00
C 580.36 134.04 581.47 130.04 586.00 129.00
C 595.38 126.85 606.26 129.42 616.00 129.00 C 625.74 128.58 637.22 128.12 647.00 129.00
C 653.93 129.02 655.97 137.85 660.25 141.75 C 664.53 145.64 667.99 152.84 672.00 157.00
M 958.00 135.00 
C 962.28 138.80 966.64 143.42 971.00 147.00
C 981.07 155.27 990.80 165.62 1001.00 174.00
C 1002.78 175.46 1005.13 177.28 1007.00 179.00
C 1007.85 179.78 1009.12 180.33 1010.00 181.00
C 1012.67 183.02 1017.63 186.55 1018.00 190.00
C 1021.90 193.78 1017.95 203.20 1019.00 209.00 C 1020.05 214.80 1018.50 223.64 1019.00 230.00 C 1019.50 236.36 1018.78 243.35 1019.00 250.00 C 1019.22 256.65 1018.88 264.22 1019.00 271.00 C 1019.12 277.78 1018.90 285.23 1019.00 292.00 C 1019.10 298.77 1018.86 305.31 1019.00 312.00 C 1019.14 318.69 1018.73 326.47 1019.00 333.00 C 1019.27 339.53 1018.39 346.88 1019.00 353.00 C 1019.61 359.12 1017.72 368.69 1019.00 374.00 C 1020.28 379.31 1015.73 390.98 1020.00 394.00
C 1031.57 393.31 1043.40 394.00 1055.00 394.00
C 1094.00 394.00 1133.00 394.00 1172.00 394.00
C 1174.96 394.00 1178.06 393.73 1181.00 394.00
C 1186.29 394.48 1187.03 396.01 1190.00 400.00
C 1197.13 409.58 1205.00 418.44 1212.00 428.00
C 1212.86 429.17 1214.03 430.76 1215.00 432.00
C 1218.15 436.02 1225.73 442.74 1227.75 447.25 C 1229.78 451.75 1240.81 460.10 1238.00 464.00
C 1233.60 470.13 1219.70 464.60 1212.00 466.00 C 1204.30 467.40 1191.67 465.35 1183.00 466.00 C 1174.33 466.65 1164.14 465.72 1155.00 466.00 C 1145.86 466.28 1135.34 465.88 1126.00 466.00 C 1116.66 466.12 1107.43 465.98 1098.00 466.00 C 1088.57 466.02 1078.46 466.04 1069.00 466.00 C 1059.54 465.96 1050.47 466.15 1041.00 466.00 C 1031.53 465.85 1021.45 466.34 1012.00 466.00 C 1002.55 465.66 993.39 466.80 984.00 466.00 C 974.61 465.20 964.25 467.71 955.00 466.00
C 953.54 465.73 952.04 464.67 951.00 464.00
C 941.53 457.90 948.61 438.77 947.00 427.00 C 945.39 415.23 947.73 397.89 947.00 385.00 C 946.27 372.11 947.28 357.44 947.00 344.00 C 946.72 330.56 947.03 315.70 947.00 302.00 C 946.97 288.30 946.82 273.75 947.00 260.00 C 947.18 246.25 946.46 232.74 947.00 219.00 C 947.54 205.26 945.77 190.67 947.00 177.00 C 948.23 163.33 944.27 148.39 947.00 135.00
C 948.60 127.12 954.24 131.65 958.00 135.00
M 93.00 186.00 
C 91.50 185.03 86.25 182.39 85.00 179.00
C 86.28 178.47 86.86 179.97 88.00 180.00
C 80.24 170.92 80.14 165.62 88.75 157.75 C 97.37 149.89 99.77 147.83 107.25 139.25 C 114.72 130.66 122.74 134.18 130.00 140.00
C 132.17 150.06 144.96 156.74 151.30 165.70 C 157.65 174.66 167.24 182.94 174.25 191.75 C 181.26 200.56 191.40 208.79 198.25 217.75 C 205.10 226.71 214.73 234.56 221.75 243.25 C 228.77 251.93 238.34 260.57 244.75 269.25 C 251.16 277.92 266.35 286.03 266.98 297.03 C 267.60 308.02 250.60 315.17 245.25 324.25 C 239.89 333.32 228.46 340.78 221.75 349.75 C 215.04 358.72 205.94 367.45 198.25 376.25 C 190.55 385.04 183.57 393.37 175.25 402.25 C 166.92 411.13 159.71 417.74 151.75 427.75 C 143.79 437.77 135.94 442.29 128.25 454.25 C 120.56 466.20 106.30 456.21 99.25 447.75 C 92.19 439.29 75.23 430.56 83.75 419.75 C 92.28 408.95 99.48 403.33 107.75 393.75 C 116.03 384.18 122.34 376.58 130.75 367.75 C 139.16 358.92 146.30 351.14 154.25 342.25 C 162.19 333.36 169.38 324.34 177.77 315.77 C 186.16 307.20 197.85 298.88 187.25 289.75 C 176.64 280.62 172.85 273.10 163.75 264.25 C 154.65 255.40 148.72 246.49 140.25 237.75 C 131.78 229.01 124.87 220.98 116.75 212.25 C 108.63 203.52 101.43 194.19 93.00 186.00
M 525.00 411.00 
C 528.85 425.36 524.53 436.48 526.00 452.00 C 527.47 467.52 507.40 462.82 495.00 463.00 C 482.60 463.18 466.27 462.90 453.00 463.00 C 439.73 463.10 423.50 462.92 410.00 463.00 C 396.50 463.08 381.27 462.89 368.00 463.00 C 354.73 463.11 338.56 462.78 326.00 463.00 C 313.44 463.22 293.71 466.80 296.00 451.00 C 298.29 435.20 291.91 423.97 298.00 410.00
C 301.73 401.45 321.28 407.22 332.00 406.00 C 342.72 404.78 360.04 406.47 372.00 406.00 C 383.96 405.53 399.72 406.03 412.00 406.00 C 424.28 405.97 440.11 405.62 452.00 406.00 C 463.89 406.38 481.46 404.95 492.00 406.00 C 502.54 407.05 522.43 401.40 525.00 411.00 Z"/>
</g>
<g fill="None" fill-opacity="0.0" stroke="#65BD8C" stroke-opacity="0.99" stroke-width="0.3"><path d="
M 580.00 138.00 
C 579.73 136.80 581.76 138.96 582.00 141.00
C 583.77 155.84 581.18 171.04 582.00 186.00 C 582.82 200.96 581.58 215.93 582.00 231.00 C 582.42 246.07 581.69 261.90 582.00 277.00 C 582.31 292.10 581.59 306.93 582.00 322.00 C 582.41 337.07 581.23 353.01 582.00 368.00 C 582.77 382.99 580.33 398.22 582.00 413.00 C 583.67 427.78 578.40 444.67 582.00 459.00
C 585.93 465.22 592.61 464.46 600.00 464.00 C 607.39 463.54 616.94 464.69 624.00 464.00 C 631.06 463.31 640.79 464.75 643.00 465.00
C 647.48 464.17 649.28 464.66 651.00 460.00
C 651.23 458.49 649.24 448.03 650.00 441.00 C 650.76 433.97 649.64 423.64 650.00 416.00 C 650.36 408.36 649.85 399.94 650.00 392.00 C 650.15 384.06 649.93 375.07 650.00 367.00 C 650.07 358.93 649.97 351.14 650.00 343.00 C 650.03 334.86 649.99 326.17 650.00 318.00 C 650.01 309.83 649.99 302.21 650.00 294.00 C 650.01 285.79 650.00 277.27 650.00 269.00 C 650.00 260.73 650.00 252.29 650.00 244.00
C 653.77 244.00 658.05 248.21 658.00 252.00
C 656.75 251.70 656.29 250.17 655.00 250.00
C 665.54 262.44 676.10 276.09 686.00 289.00
C 686.66 289.46 688.96 290.48 690.75 292.25 C 692.55 294.01 692.33 297.86 692.00 297.00
C 705.87 313.88 720.47 331.47 733.00 349.00
C 731.97 346.73 728.90 345.71 729.00 343.00
C 731.47 344.16 738.36 352.05 734.00 351.00
C 738.01 357.86 744.24 363.72 748.75 370.25 C 753.26 376.77 759.45 382.53 764.08 388.92 C 768.71 395.31 773.93 402.16 778.75 408.25 C 783.56 414.35 788.89 421.66 793.70 427.30 C 798.50 432.94 803.28 442.02 808.70 446.30 C 814.11 450.59 817.19 464.79 824.00 465.00
C 823.75 464.74 824.00 464.00 824.00 464.00
C 822.49 463.27 820.78 461.85 821.00 460.00
C 831.01 465.82 844.16 462.28 856.00 463.00 C 867.84 463.72 881.78 462.54 893.00 463.00
C 893.69 462.14 894.75 460.07 895.00 459.00
C 894.66 459.82 892.68 459.94 892.00 460.00
C 893.96 452.52 892.78 445.01 893.00 437.00 C 893.22 428.99 892.90 420.11 893.00 412.00 C 893.11 403.89 892.95 396.17 893.00 388.00 C 893.05 379.83 892.98 371.22 893.00 363.00 C 893.02 354.78 892.98 346.20 893.00 338.00 C 893.02 329.80 892.97 322.18 893.00 314.00 C 893.03 305.82 892.95 297.17 893.00 289.00 C 893.05 280.83 892.90 272.05 893.00 264.00 C 893.10 255.95 892.76 247.83 893.00 240.00 C 893.24 232.17 892.50 222.41 893.00 215.00 C 893.50 207.59 890.98 196.75 895.00 194.00
C 893.62 184.10 878.70 175.98 872.08 168.92 C 865.47 161.85 853.82 153.17 847.25 146.75 C 840.68 140.33 825.38 123.86 823.00 136.00
C 823.32 138.62 826.09 147.80 825.00 155.00 C 823.91 162.20 825.51 171.45 825.00 179.00 C 824.49 186.55 825.22 194.25 825.00 202.00 C 824.78 209.75 825.10 218.12 825.00 226.00 C 824.90 233.88 825.05 242.09 825.00 250.00 C 824.95 257.91 825.04 264.99 825.00 273.00 C 824.96 281.01 825.04 288.81 825.00 297.00 C 824.96 305.19 825.08 311.36 825.00 320.00 C 824.92 328.64 825.17 334.45 825.00 344.00 C 824.83 353.55 820.45 349.01 818.00 343.00
C 814.98 339.32 813.09 334.07 809.00 331.00
C 807.99 333.15 803.02 328.04 804.00 326.00
C 806.22 326.49 805.74 329.57 808.00 330.00
C 801.13 319.19 792.14 308.80 784.00 299.00
C 784.73 299.42 779.33 297.80 778.00 295.00
C 778.46 293.14 780.04 294.84 781.00 295.00
C 769.42 280.89 758.78 265.72 747.00 252.00
C 747.48 252.98 748.23 253.78 748.00 255.00
C 746.93 253.28 740.23 248.52 744.00 248.00
C 733.25 233.96 722.16 217.69 710.25 204.75 C 698.35 191.80 690.48 173.12 676.00 163.00
C 673.81 165.28 672.02 157.04 672.00 157.00
C 667.99 152.84 664.53 145.64 660.25 141.75 C 655.97 137.85 653.93 129.02 647.00 129.00
C 647.04 129.00 647.00 130.00 647.00 130.00
C 646.89 129.83 634.00 131.93 629.00 131.00 C 624.00 130.07 614.02 131.89 608.00 131.00 C 601.98 130.11 592.18 132.42 586.00 131.00
C 586.11 131.03 583.76 130.26 586.00 129.00
C 581.47 130.04 580.36 134.04 580.00 138.00
M 850.00 152.00 
C 847.72 150.43 845.43 148.33 844.00 146.00
C 846.67 146.41 849.67 149.28 850.00 152.00 Z"/>
</g>
<g fill="None" fill-opacity="0.0" stroke="#54B47F" stroke-opacity="0.07" stroke-width="0.3"><path d="
M 586.00 131.00 
C 594.98 131.58 606.12 129.59 616.00 130.00 C 625.88 130.41 637.12 130.90 647.00 130.00
C 647.00 130.00 647.04 129.00 647.00 129.00
C 637.22 128.12 625.74 128.58 616.00 129.00 C 606.26 129.42 595.38 126.85 586.00 129.00
C 583.76 130.26 586.11 131.03 586.00 131.00 Z"/>
</g>
<g fill="None" fill-opacity="0.0" stroke="#4AAD74" stroke-opacity="0.46" stroke-width="0.3"><path d="
M 586.00 131.00 
C 592.18 132.42 601.98 130.11 608.00 131.00 C 614.02 131.89 624.00 130.07 629.00 131.00 C 634.00 131.93 646.89 129.83 647.00 130.00
C 637.12 130.90 625.88 130.41 616.00 130.00 C 606.12 129.59 594.98 131.58 586.00 131.00 Z"/>
</g>
<g fill="None" fill-opacity="0.0" stroke="#65BD8C" stroke-opacity="0.99" stroke-width="0.3"><path d="
M 947.00 135.00 
C 947.02 137.85 950.21 144.52 949.00 150.00 C 947.79 155.48 949.57 162.25 949.00 168.00 C 948.43 173.75 949.24 179.02 949.00 185.00 C 948.76 190.98 949.11 196.74 949.00 203.00 C 948.89 209.26 949.05 214.28 949.00 221.00 C 948.95 227.72 949.02 230.10 949.00 238.00 C 948.98 245.90 949.00 245.85 949.00 256.00 C 949.00 266.15 949.00 280.83 949.00 291.00 C 949.00 301.17 948.99 300.79 949.00 309.00 C 949.01 317.21 948.98 318.39 949.00 326.00 C 949.02 333.61 948.96 335.81 949.00 344.00 C 949.04 352.19 948.91 351.76 949.00 362.00 C 949.09 372.24 948.87 386.75 949.00 397.00 C 949.13 407.25 948.27 406.49 949.00 415.00 C 949.73 423.51 947.01 423.61 949.00 432.00 C 950.99 440.39 945.32 458.33 951.00 464.00
C 952.04 464.67 953.54 465.73 955.00 466.00
C 954.18 465.66 954.06 463.68 954.00 463.00
C 965.18 464.99 976.29 463.77 988.00 464.00 C 999.71 464.23 1012.14 463.91 1024.00 464.00 C 1035.86 464.09 1048.09 463.99 1060.00 464.00 C 1071.91 464.01 1084.11 464.06 1096.00 464.00 C 1107.89 463.94 1120.19 464.18 1132.00 464.00 C 1143.81 463.82 1156.40 464.41 1168.00 464.00 C 1179.60 463.59 1192.87 464.91 1204.00 464.00 C 1215.13 463.09 1230.07 467.81 1236.00 460.00
C 1237.10 460.84 1238.04 462.46 1238.00 464.00
C 1240.81 460.10 1229.78 451.75 1227.75 447.25 C 1225.73 442.74 1218.15 436.02 1215.00 432.00
C 1213.32 430.74 1212.85 429.93 1212.00 428.00
C 1205.00 418.44 1197.13 409.58 1190.00 400.00
C 1177.15 391.56 1155.91 398.80 1139.00 397.00 C 1122.09 395.20 1100.75 397.74 1083.00 397.00 C 1065.25 396.26 1044.18 397.66 1027.00 396.00
C 1023.99 396.29 1018.51 397.06 1017.00 394.00
C 1013.87 389.41 1018.40 379.78 1017.00 374.00 C 1015.60 368.22 1017.60 360.39 1017.00 354.00 C 1016.40 347.61 1017.28 339.62 1017.00 333.00 C 1016.72 326.38 1017.12 319.74 1017.00 313.00 C 1016.88 306.26 1017.06 298.77 1017.00 292.00 C 1016.94 285.23 1017.02 278.76 1017.00 272.00 C 1016.98 265.24 1017.01 258.81 1017.00 252.00 C 1016.99 245.19 1017.00 237.84 1017.00 231.00 C 1017.00 224.16 1017.00 217.86 1017.00 211.00 C 1017.00 204.14 1017.00 196.90 1017.00 190.00
C 1017.00 189.50 1017.00 189.00 1017.00 189.00
C 1014.81 187.09 1011.05 186.05 1010.00 183.00
C 1009.85 182.55 1010.17 181.43 1010.00 181.00
C 1009.12 180.33 1007.85 179.78 1007.00 179.00
C 1004.33 177.84 1002.58 176.44 1001.00 174.00
C 990.80 165.62 981.07 155.27 971.00 147.00
C 966.21 145.06 960.99 138.98 958.00 135.00
C 954.24 131.65 948.60 127.12 947.00 135.00 Z"/>
</g>
<g fill="None" fill-opacity="0.0" stroke="#010101" stroke-opacity="1.00" stroke-width="0.3"><path d="
M 88.00 180.00 
C 89.62 181.90 91.29 184.29 93.00 186.00
C 101.43 194.19 108.63 203.52 116.75 212.25 C 124.87 220.98 131.78 229.01 140.25 237.75 C 148.72 246.49 154.65 255.40 163.75 264.25 C 172.85 273.10 176.64 280.62 187.25 289.75 C 197.85 298.88 186.16 307.20 177.77 315.77 C 169.38 324.34 162.19 333.36 154.25 342.25 C 146.30 351.14 139.16 358.92 130.75 367.75 C 122.34 376.58 116.03 384.18 107.75 393.75 C 99.48 403.33 92.28 408.95 83.75 419.75 C 75.23 430.56 92.19 439.29 99.25 447.75 C 106.30 456.21 120.56 466.20 128.25 454.25 C 135.94 442.29 143.79 437.77 151.75 427.75 C 159.71 417.74 166.92 411.13 175.25 402.25 C 183.57 393.37 190.55 385.04 198.25 376.25 C 205.94 367.45 215.04 358.72 221.75 349.75 C 228.46 340.78 239.89 333.32 245.25 324.25 C 250.60 315.17 267.60 308.02 266.98 297.03 C 266.35 286.03 251.16 277.92 244.75 269.25 C 238.34 260.57 228.77 251.93 221.75 243.25 C 214.73 234.56 205.10 226.71 198.25 217.75 C 191.40 208.79 181.26 200.56 174.25 191.75 C 167.24 182.94 157.65 174.66 151.30 165.70 C 144.96 156.74 132.17 150.06 130.00 140.00
C 122.74 134.18 114.72 130.66 107.25 139.25 C 99.77 147.83 97.37 149.89 88.75 157.75 C 80.14 165.62 80.24 170.92 88.00 180.00 Z"/>
</g>
<g fill="None" fill-opacity="0.0" stroke="#5ABD8F" stroke-opacity="0.47" stroke-width="0.3"><path d="
M 823.00 136.00 
C 819.97 151.43 823.07 169.22 822.00 185.00
C 822.06 187.21 823.00 191.07 823.00 194.00
C 823.00 213.95 823.00 232.09 823.00 252.00
C 823.00 255.33 823.00 258.67 823.00 262.00
C 823.00 277.84 822.42 293.82 823.00 309.00
C 823.18 313.74 822.30 319.04 822.00 323.00
C 821.36 331.38 824.82 339.93 822.00 348.00
C 822.46 345.37 819.27 344.55 818.00 343.00
C 820.45 349.01 824.83 353.55 825.00 344.00 C 825.17 334.45 824.92 328.64 825.00 320.00 C 825.08 311.36 824.96 305.19 825.00 297.00 C 825.04 288.81 824.96 281.01 825.00 273.00 C 825.04 264.99 824.95 257.91 825.00 250.00 C 825.05 242.09 824.90 233.88 825.00 226.00 C 825.10 218.12 824.78 209.75 825.00 202.00 C 825.22 194.25 824.49 186.55 825.00 179.00 C 825.51 171.45 823.91 162.20 825.00 155.00 C 826.09 147.80 823.32 138.62 823.00 136.00 Z"/>
</g>
<g fill="None" fill-opacity="0.0" stroke="#62B685" stroke-opacity="0.45" stroke-width="0.3"><path d="
M 951.00 464.00 
C 945.32 458.33 950.99 440.39 949.00 432.00 C 947.01 423.61 949.73 423.51 949.00 415.00 C 948.27 406.49 949.13 407.25 949.00 397.00 C 948.87 386.75 949.09 372.24 949.00 362.00 C 948.91 351.76 949.04 352.19 949.00 344.00 C 948.96 335.81 949.02 333.61 949.00 326.00 C 948.98 318.39 949.01 317.21 949.00 309.00 C 948.99 300.79 949.00 301.17 949.00 291.00 C 949.00 280.83 949.00 266.15 949.00 256.00 C 949.00 245.85 948.98 245.90 949.00 238.00 C 949.02 230.10 948.95 227.72 949.00 221.00 C 949.05 214.28 948.89 209.26 949.00 203.00 C 949.11 196.74 948.76 190.98 949.00 185.00 C 949.24 179.02 948.43 173.75 949.00 168.00 C 949.57 162.25 947.79 155.48 949.00 150.00 C 950.21 144.52 947.02 137.85 947.00 135.00
C 944.27 148.39 948.23 163.33 947.00 177.00 C 945.77 190.67 947.54 205.26 947.00 219.00 C 946.46 232.74 947.18 246.25 947.00 260.00 C 946.82 273.75 946.97 288.30 947.00 302.00 C 947.03 315.70 946.72 330.56 947.00 344.00 C 947.28 357.44 946.27 372.11 947.00 385.00 C 947.73 397.89 945.39 415.23 947.00 427.00 C 948.61 438.77 941.53 457.90 951.00 464.00 Z"/>
</g>
<g fill="None" fill-opacity="0.0" stroke="#55B685" stroke-opacity="0.30" stroke-width="0.3"><path d="
M 971.00 147.00 
C 966.64 143.42 962.28 138.80 958.00 135.00
C 960.99 138.98 966.21 145.06 971.00 147.00 Z"/>
</g>
<g fill="None" fill-opacity="0.0" stroke="#58B682" stroke-opacity="0.24" stroke-width="0.3"><path d="
M 580.00 138.00 
C 579.32 145.52 580.00 153.44 580.00 161.00
C 580.00 164.00 580.00 167.00 580.00 170.00
C 580.00 174.33 580.00 178.67 580.00 183.00
C 580.00 186.33 580.00 189.67 580.00 193.00
C 580.00 197.49 579.39 201.85 579.00 206.00
C 579.01 209.19 580.03 212.57 579.00 216.00
C 579.05 216.35 579.95 216.77 580.00 217.00
C 582.27 192.76 582.29 164.91 582.00 141.00
C 581.76 138.96 579.73 136.80 580.00 138.00 Z"/>
</g>
<g fill="None" fill-opacity="0.0" stroke="#57B584" stroke-opacity="0.53" stroke-width="0.3"><path d="
M 580.00 217.00 
C 578.46 233.37 580.00 248.05 580.00 264.00
C 580.00 267.00 580.00 270.00 580.00 273.00
C 580.00 277.33 580.00 281.67 580.00 286.00
C 580.00 289.33 580.00 292.67 580.00 296.00
C 580.00 305.44 580.00 313.49 580.00 323.00
C 580.00 326.33 580.00 329.67 580.00 333.00
C 580.00 338.00 580.00 343.00 580.00 348.00
C 580.00 351.00 580.00 354.00 580.00 357.00
C 580.00 361.67 580.00 366.33 580.00 371.00
C 580.00 374.00 580.00 377.00 580.00 380.00
C 580.00 404.91 575.82 432.73 580.00 457.00
C 580.27 457.63 581.64 458.43 582.00 459.00
C 578.40 444.67 583.67 427.78 582.00 413.00 C 580.33 398.22 582.77 382.99 582.00 368.00 C 581.23 353.01 582.41 337.07 582.00 322.00 C 581.59 306.93 582.31 292.10 582.00 277.00 C 581.69 261.90 582.42 246.07 582.00 231.00 C 581.58 215.93 582.82 200.96 582.00 186.00 C 581.18 171.04 583.77 155.84 582.00 141.00
C 582.29 164.91 582.27 192.76 580.00 217.00 Z"/>
</g>
<g fill="None" fill-opacity="0.0" stroke="#5FB283" stroke-opacity="0.54" stroke-width="0.3"><path d="
M 850.00 152.00 
C 849.67 149.28 846.67 146.41 844.00 146.00
C 845.43 148.33 847.72 150.43 850.00 152.00 Z"/>
</g>
<g fill="None" fill-opacity="0.0" stroke="#5AAF7C" stroke-opacity="0.35" stroke-width="0.3"><path d="
M 676.00 163.00 
C 676.00 163.00 676.05 162.49 676.00 162.00
C 675.88 161.74 675.04 161.35 675.00 161.00
C 675.00 161.00 675.05 160.50 675.00 160.00
C 674.88 159.74 674.20 159.31 674.00 159.00
C 673.37 158.01 672.77 157.80 672.00 157.00
C 672.02 157.04 673.81 165.28 676.00 163.00 Z"/>
</g>
<g fill="None" fill-opacity="0.0" stroke="#00FFFF" stroke-opacity="0.00" stroke-width="0.3"><path d="
M 675.00 160.00 
C 674.97 159.65 674.24 159.25 674.00 159.00
C 674.20 159.31 674.88 159.74 675.00 160.00 Z"/>
</g>
<g fill="None" fill-opacity="0.0" stroke="#00FFFF" stroke-opacity="0.00" stroke-width="0.3"><path d="
M 580.00 170.00 
C 580.00 167.00 580.00 164.00 580.00 161.00
C 579.73 163.76 579.73 167.18 580.00 170.00 Z"/>
</g>
<g fill="None" fill-opacity="0.0" stroke="#60BF80" stroke-opacity="0.03" stroke-width="0.3"><path d="
M 676.00 162.00 
C 675.97 161.65 675.12 161.26 675.00 161.00
C 675.04 161.35 675.88 161.74 676.00 162.00 Z"/>
</g>
<g fill="None" fill-opacity="0.0" stroke="#5BB58E" stroke-opacity="0.31" stroke-width="0.3"><path d="
M 1007.00 179.00 
C 1005.13 177.28 1002.78 175.46 1001.00 174.00
C 1002.58 176.44 1004.33 177.84 1007.00 179.00 Z"/>
</g>
<g fill="None" fill-opacity="0.0" stroke="#000000" stroke-opacity="0.42" stroke-width="0.3"><path d="
M 93.00 186.00 
C 91.29 184.29 89.62 181.90 88.00 180.00
C 86.86 179.97 86.28 178.47 85.00 179.00
C 86.25 182.39 91.50 185.03 93.00 186.00 Z"/>
</g>
<g fill="None" fill-opacity="0.0" stroke="#57AF83" stroke-opacity="0.07" stroke-width="0.3"><path d="
M 1010.00 183.00 
C 1012.28 184.83 1015.46 185.85 1017.00 189.00
C 1017.00 189.00 1017.00 189.50 1017.00 190.00
C 1017.25 190.25 1018.00 190.00 1018.00 190.00
C 1017.63 186.55 1012.67 183.02 1010.00 181.00
C 1010.17 181.43 1009.85 182.55 1010.00 183.00 Z"/>
</g>
<g fill="None" fill-opacity="0.0" stroke="#00FFFF" stroke-opacity="0.00" stroke-width="0.3"><path d="
M 580.00 193.00 
C 580.00 189.67 580.00 186.33 580.00 183.00
C 579.70 186.08 579.70 189.86 580.00 193.00 Z"/>
</g>
<g fill="None" fill-opacity="0.0" stroke="#53AE7A" stroke-opacity="0.53" stroke-width="0.3"><path d="
M 1017.00 189.00 
C 1015.46 185.85 1012.28 184.83 1010.00 183.00
C 1011.05 186.05 1014.81 187.09 1017.00 189.00 Z"/>
</g>
<g fill="None" fill-opacity="0.0" stroke="#00FFFF" stroke-opacity="0.00" stroke-width="0.3"><path d="
M 823.00 194.00 
C 823.00 191.07 822.06 187.21 822.00 185.00
C 821.78 188.17 822.76 191.54 823.00 194.00 Z"/>
</g>
<g fill="None" fill-opacity="0.0" stroke="#5DB784" stroke-opacity="0.38" stroke-width="0.3"><path d="
M 1017.00 394.00 
C 1018.00 395.47 1018.88 394.07 1020.00 394.00
C 1015.73 390.98 1020.28 379.31 1019.00 374.00 C 1017.72 368.69 1019.61 359.12 1019.00 353.00 C 1018.39 346.88 1019.27 339.53 1019.00 333.00 C 1018.73 326.47 1019.14 318.69 1019.00 312.00 C 1018.86 305.31 1019.10 298.77 1019.00 292.00 C 1018.90 285.23 1019.12 277.78 1019.00 271.00 C 1018.88 264.22 1019.22 256.65 1019.00 250.00 C 1018.78 243.35 1019.50 236.36 1019.00 230.00 C 1018.50 223.64 1020.05 214.80 1019.00 209.00 C 1017.95 203.20 1021.90 193.78 1018.00 190.00
C 1018.00 190.00 1017.25 190.25 1017.00 190.00
C 1017.00 196.90 1017.00 204.14 1017.00 211.00 C 1017.00 217.86 1017.00 224.16 1017.00 231.00 C 1017.00 237.84 1016.99 245.19 1017.00 252.00 C 1017.01 258.81 1016.98 265.24 1017.00 272.00 C 1017.02 278.76 1016.94 285.23 1017.00 292.00 C 1017.06 298.77 1016.88 306.26 1017.00 313.00 C 1017.12 319.74 1016.72 326.38 1017.00 333.00 C 1017.28 339.62 1016.40 347.61 1017.00 354.00 C 1017.60 360.39 1015.60 368.22 1017.00 374.00 C 1018.40 379.78 1013.87 389.41 1017.00 394.00 Z"/>
</g>
<g fill="None" fill-opacity="0.0" stroke="#5CB483" stroke-opacity="0.32" stroke-width="0.3"><path d="
M 895.00 459.00 
C 898.34 444.44 893.49 427.99 895.00 413.00 C 896.51 398.01 894.32 382.18 895.00 367.00 C 895.68 351.82 894.71 336.26 895.00 321.00 C 895.29 305.74 894.89 290.30 895.00 275.00 C 895.11 259.70 895.00 244.30 895.00 229.00
C 894.67 225.60 894.00 221.08 894.00 217.00
C 894.00 212.59 894.65 207.66 895.00 204.00
C 895.00 200.77 895.45 197.19 895.00 194.00
C 890.98 196.75 893.50 207.59 893.00 215.00 C 892.50 222.41 893.24 232.17 893.00 240.00 C 892.76 247.83 893.10 255.95 893.00 264.00 C 892.90 272.05 893.05 280.83 893.00 289.00 C 892.95 297.17 893.03 305.82 893.00 314.00 C 892.97 322.18 893.02 329.80 893.00 338.00 C 892.98 346.20 893.02 354.78 893.00 363.00 C 892.98 371.22 893.05 379.83 893.00 388.00 C 892.95 396.17 893.11 403.89 893.00 412.00 C 892.90 420.11 893.22 428.99 893.00 437.00 C 892.78 445.01 893.96 452.52 892.00 460.00
C 892.68 459.94 894.66 459.82 895.00 459.00 Z"/>
</g>
<g fill="None" fill-opacity="0.0" stroke="#6A9A99" stroke-opacity="0.01" stroke-width="0.3"><path d="
M 894.00 217.00 
C 894.00 216.96 895.00 217.00 895.00 217.00
C 895.00 212.67 895.00 208.33 895.00 204.00
C 894.65 207.66 894.00 212.59 894.00 217.00 Z"/>
</g>
<g fill="None" fill-opacity="0.0" stroke="#808080" stroke-opacity="0.01" stroke-width="0.3"><path d="
M 579.00 216.00 
C 580.03 212.57 579.01 209.19 579.00 206.00
C 578.71 209.04 578.57 212.98 579.00 216.00 Z"/>
</g>
<g fill="None" fill-opacity="0.0" stroke="#60C790" stroke-opacity="0.02" stroke-width="0.3"><path d="
M 895.00 229.00 
C 895.00 225.00 895.00 221.00 895.00 217.00
C 895.00 217.00 894.00 216.96 894.00 217.00
C 894.00 221.08 894.67 225.60 895.00 229.00 Z"/>
</g>
<g fill="None" fill-opacity="0.0" stroke="#5EB885" stroke-opacity="0.41" stroke-width="0.3"><path d="
M 651.00 460.00 
C 653.34 389.99 651.33 317.84 652.00 247.00
C 653.52 247.29 654.13 248.97 655.00 250.00
C 656.29 250.17 656.75 251.70 658.00 252.00
C 658.05 248.21 653.77 244.00 650.00 244.00
C 650.00 252.29 650.00 260.73 650.00 269.00 C 650.00 277.27 650.01 285.79 650.00 294.00 C 649.99 302.21 650.01 309.83 650.00 318.00 C 649.99 326.17 650.03 334.86 650.00 343.00 C 649.97 351.14 650.07 358.93 650.00 367.00 C 649.93 375.07 650.15 384.06 650.00 392.00 C 649.85 399.94 650.36 408.36 650.00 416.00 C 649.64 423.64 650.76 433.97 650.00 441.00 C 649.24 448.03 651.23 458.49 651.00 460.00 Z"/>
</g>
<g fill="None" fill-opacity="0.0" stroke="#5DB882" stroke-opacity="0.34" stroke-width="0.3"><path d="
M 747.00 252.00 
C 745.99 250.82 744.98 249.28 744.00 248.00
C 740.23 248.52 746.93 253.28 748.00 255.00
C 748.23 253.78 747.48 252.98 747.00 252.00 Z"/>
</g>
<g fill="None" fill-opacity="0.0" stroke="#00FFFF" stroke-opacity="0.00" stroke-width="0.3"><path d="
M 823.00 262.00 
C 823.00 258.67 823.00 255.33 823.00 252.00
C 822.70 255.08 822.70 258.86 823.00 262.00 Z"/>
</g>
<g fill="None" fill-opacity="0.0" stroke="#00FFFF" stroke-opacity="0.00" stroke-width="0.3"><path d="
M 580.00 273.00 
C 580.00 270.00 580.00 267.00 580.00 264.00
C 579.73 266.76 579.73 270.18 580.00 273.00 Z"/>
</g>
<g fill="None" fill-opacity="0.0" stroke="#00FFFF" stroke-opacity="0.00" stroke-width="0.3"><path d="
M 580.00 296.00 
C 580.00 292.67 580.00 289.33 580.00 286.00
C 579.70 289.08 579.70 292.86 580.00 296.00 Z"/>
</g>
<g fill="None" fill-opacity="0.0" stroke="#57B782" stroke-opacity="0.33" stroke-width="0.3"><path d="
M 686.00 289.00 
C 687.85 291.41 689.98 294.55 692.00 297.00
C 692.33 297.86 692.55 294.01 690.75 292.25 C 688.96 290.48 686.66 289.46 686.00 289.00 Z"/>
</g>
<g fill="None" fill-opacity="0.0" stroke="#60B780" stroke-opacity="0.35" stroke-width="0.3"><path d="
M 784.00 299.00 
C 783.00 297.80 782.03 296.25 781.00 295.00
C 780.04 294.84 778.46 293.14 778.00 295.00
C 779.33 297.80 784.73 299.42 784.00 299.00 Z"/>
</g>
<g fill="None" fill-opacity="0.0" stroke="#00FFFF" stroke-opacity="0.00" stroke-width="0.3"><path d="
M 822.00 323.00 
C 822.30 319.04 823.18 313.74 823.00 309.00
C 822.77 312.91 821.91 318.31 822.00 323.00 Z"/>
</g>
<g fill="None" fill-opacity="0.0" stroke="#00FFFF" stroke-opacity="0.00" stroke-width="0.3"><path d="
M 580.00 333.00 
C 580.00 329.67 580.00 326.33 580.00 323.00
C 579.70 326.08 579.70 329.86 580.00 333.00 Z"/>
</g>
<g fill="None" fill-opacity="0.0" stroke="#4DB078" stroke-opacity="0.48" stroke-width="0.3"><path d="
M 809.00 331.00 
C 808.73 330.80 808.29 330.23 808.00 330.00
C 805.74 329.57 806.22 326.49 804.00 326.00
C 803.02 328.04 807.99 333.15 809.00 331.00 Z"/>
</g>
<g fill="None" fill-opacity="0.0" stroke="#5DAD7D" stroke-opacity="0.43" stroke-width="0.3"><path d="
M 733.00 349.00 
C 733.38 349.84 733.61 350.33 734.00 351.00
C 738.36 352.05 731.47 344.16 729.00 343.00
C 728.90 345.71 731.97 346.73 733.00 349.00 Z"/>
</g>
<g fill="None" fill-opacity="0.0" stroke="#00FFFF" stroke-opacity="0.00" stroke-width="0.3"><path d="
M 580.00 357.00 
C 580.00 354.00 580.00 351.00 580.00 348.00
C 579.73 350.76 579.73 354.18 580.00 357.00 Z"/>
</g>
<g fill="None" fill-opacity="0.0" stroke="#00FFFF" stroke-opacity="0.00" stroke-width="0.3"><path d="
M 580.00 380.00 
C 580.00 377.00 580.00 374.00 580.00 371.00
C 579.73 373.76 579.73 377.18 580.00 380.00 Z"/>
</g>
<g fill="None" fill-opacity="0.0" stroke="#54B179" stroke-opacity="0.26" stroke-width="0.3"><path d="
M 1027.00 396.00 
C 1035.93 395.14 1046.20 395.26 1055.00 394.00
C 1043.40 394.00 1031.57 393.31 1020.00 394.00
C 1018.88 394.07 1018.00 395.47 1017.00 394.00
C 1018.51 397.06 1023.99 396.29 1027.00 396.00 Z"/>
</g>
<g fill="None" fill-opacity="0.0" stroke="#51B27B" stroke-opacity="0.48" stroke-width="0.3"><path d="
M 1027.00 396.00 
C 1044.18 397.66 1065.25 396.26 1083.00 397.00 C 1100.75 397.74 1122.09 395.20 1139.00 397.00 C 1155.91 398.80 1177.15 391.56 1190.00 400.00
C 1187.03 396.01 1186.29 394.48 1181.00 394.00
C 1178.60 394.01 1174.47 394.24 1172.00 394.00
C 1133.00 394.00 1094.00 394.00 1055.00 394.00
C 1046.20 395.26 1035.93 395.14 1027.00 396.00 Z"/>
</g>
<g fill="None" fill-opacity="0.0" stroke="#4EBD71" stroke-opacity="0.02" stroke-width="0.3"><path d="
M 1181.00 394.00 
C 1178.06 393.73 1174.96 394.00 1172.00 394.00
C 1174.47 394.24 1178.60 394.01 1181.00 394.00 Z"/>
</g>
<g fill="None" fill-opacity="0.0" stroke="#000000" stroke-opacity="0.40" stroke-width="0.3"><path d="
M 298.00 410.00 
C 303.98 404.02 316.73 409.39 325.00 408.00 C 333.27 406.61 344.99 408.61 354.00 408.00 C 363.01 407.39 373.69 408.23 383.00 408.00 C 392.31 407.77 402.62 408.01 412.00 408.00 C 421.38 407.99 431.75 407.80 441.00 408.00 C 450.25 408.20 461.16 407.44 470.00 408.00 C 478.84 408.56 491.13 406.72 499.00 408.00 C 506.87 409.28 520.52 403.83 525.00 411.00
C 522.43 401.40 502.54 407.05 492.00 406.00 C 481.46 404.95 463.89 406.38 452.00 406.00 C 440.11 405.62 424.28 405.97 412.00 406.00 C 399.72 406.03 383.96 405.53 372.00 406.00 C 360.04 406.47 342.72 404.78 332.00 406.00 C 321.28 407.22 301.73 401.45 298.00 410.00 Z"/>
</g>
<g fill="None" fill-opacity="0.0" stroke="#010101" stroke-opacity="1.00" stroke-width="0.3"><path d="
M 298.00 410.00 
C 291.91 423.97 298.29 435.20 296.00 451.00 C 293.71 466.80 313.44 463.22 326.00 463.00 C 338.56 462.78 354.73 463.11 368.00 463.00 C 381.27 462.89 396.50 463.08 410.00 463.00 C 423.50 462.92 439.73 463.10 453.00 463.00 C 466.27 462.90 482.60 463.18 495.00 463.00 C 507.40 462.82 527.47 467.52 526.00 452.00 C 524.53 436.48 528.85 425.36 525.00 411.00
C 520.52 403.83 506.87 409.28 499.00 408.00 C 491.13 406.72 478.84 408.56 470.00 408.00 C 461.16 407.44 450.25 408.20 441.00 408.00 C 431.75 407.80 421.38 407.99 412.00 408.00 C 402.62 408.01 392.31 407.77 383.00 408.00 C 373.69 408.23 363.01 407.39 354.00 408.00 C 344.99 408.61 333.27 406.61 325.00 408.00 C 316.73 409.39 303.98 404.02 298.00 410.00 Z"/>
</g>
<g fill="None" fill-opacity="0.0" stroke="#5FAF82" stroke-opacity="0.25" stroke-width="0.3"><path d="
M 1215.00 432.00 
C 1214.03 430.76 1212.86 429.17 1212.00 428.00
C 1212.85 429.93 1213.32 430.74 1215.00 432.00 Z"/>
</g>
<g fill="None" fill-opacity="0.0" stroke="#56B27D" stroke-opacity="0.27" stroke-width="0.3"><path d="
M 643.00 465.00 
C 640.79 464.75 631.06 463.31 624.00 464.00 C 616.94 464.69 607.39 463.54 600.00 464.00 C 592.61 464.46 585.93 465.22 582.00 459.00
C 581.64 458.43 580.27 457.63 580.00 457.00
C 582.27 470.15 596.97 465.85 608.00 466.00 C 619.03 466.15 632.30 466.99 643.00 465.00 Z"/>
</g>
<g fill="None" fill-opacity="0.0" stroke="#57B581" stroke-opacity="0.57" stroke-width="0.3"><path d="
M 824.00 464.00 
C 836.82 462.84 850.20 464.86 862.00 466.00
C 869.75 466.00 887.94 469.26 893.00 463.00
C 881.78 462.54 867.84 463.72 856.00 463.00 C 844.16 462.28 831.01 465.82 821.00 460.00
C 820.78 461.85 822.49 463.27 824.00 464.00 Z"/>
</g>
<g fill="None" fill-opacity="0.0" stroke="#55B67F" stroke-opacity="0.29" stroke-width="0.3"><path d="
M 955.00 466.00 
C 964.25 467.71 974.61 465.20 984.00 466.00 C 993.39 466.80 1002.55 465.66 1012.00 466.00 C 1021.45 466.34 1031.53 465.85 1041.00 466.00 C 1050.47 466.15 1059.54 465.96 1069.00 466.00 C 1078.46 466.04 1088.57 466.02 1098.00 466.00 C 1107.43 465.98 1116.66 466.12 1126.00 466.00 C 1135.34 465.88 1145.86 466.28 1155.00 466.00 C 1164.14 465.72 1174.33 466.65 1183.00 466.00 C 1191.67 465.35 1204.30 467.40 1212.00 466.00 C 1219.70 464.60 1233.60 470.13 1238.00 464.00
C 1238.04 462.46 1237.10 460.84 1236.00 460.00
C 1230.07 467.81 1215.13 463.09 1204.00 464.00 C 1192.87 464.91 1179.60 463.59 1168.00 464.00 C 1156.40 464.41 1143.81 463.82 1132.00 464.00 C 1120.19 464.18 1107.89 463.94 1096.00 464.00 C 1084.11 464.06 1071.91 464.01 1060.00 464.00 C 1048.09 463.99 1035.86 464.09 1024.00 464.00 C 1012.14 463.91 999.71 464.23 988.00 464.00 C 976.29 463.77 965.18 464.99 954.00 463.00
C 954.06 463.68 954.18 465.66 955.00 466.00 Z"/>
</g>
<g fill="None" fill-opacity="0.0" stroke="#53B37E" stroke-opacity="0.24" stroke-width="0.3"><path d="
M 824.00 465.00 
C 827.46 468.58 837.80 465.15 843.00 466.00 C 848.20 466.85 856.52 466.00 862.00 466.00
C 850.20 464.86 836.82 462.84 824.00 464.00
C 824.00 464.00 823.75 464.74 824.00 465.00 Z"/>
</g>
<g fill="#000000" fill-opacity="0.00" stroke="None">
<path d="
M 0.00 567.00 
L 1280.00 567.00
L 1280.00 0.00
L 0.00 0.00
L 0.00 567.00
M 672.00 157.00 
C 672.77 157.80 673.37 158.01 674.00 159.00
C 674.24 159.25 674.97 159.65 675.00 160.00
C 675.05 160.50 675.00 161.00 675.00 161.00
C 675.12 161.26 675.97 161.65 676.00 162.00
C 676.05 162.49 676.00 163.00 676.00 163.00
C 690.48 173.12 698.35 191.80 710.25 204.75 C 722.16 217.69 733.25 233.96 744.00 248.00
C 744.98 249.28 745.99 250.82 747.00 252.00
C 758.78 265.72 769.42 280.89 781.00 295.00
C 782.03 296.25 783.00 297.80 784.00 299.00
C 792.14 308.80 801.13 319.19 808.00 330.00
C 808.29 330.23 808.73 330.80 809.00 331.00
C 813.09 334.07 814.98 339.32 818.00 343.00
C 819.27 344.55 822.46 345.37 822.00 348.00
C 824.82 339.93 821.36 331.38 822.00 323.00
C 821.91 318.31 822.77 312.91 823.00 309.00
C 822.42 293.82 823.00 277.84 823.00 262.00
C 822.70 258.86 822.70 255.08 823.00 252.00
C 823.00 232.09 823.00 213.95 823.00 194.00
C 822.76 191.54 821.78 188.17 822.00 185.00
C 823.07 169.22 819.97 151.43 823.00 136.00
C 825.38 123.86 840.68 140.33 847.25 146.75 C 853.82 153.17 865.47 161.85 872.08 168.92 C 878.70 175.98 893.62 184.10 895.00 194.00
C 895.45 197.19 895.00 200.77 895.00 204.00
C 895.00 208.33 895.00 212.67 895.00 217.00
C 895.00 221.00 895.00 225.00 895.00 229.00
C 895.00 244.30 895.11 259.70 895.00 275.00 C 894.89 290.30 895.29 305.74 895.00 321.00 C 894.71 336.26 895.68 351.82 895.00 367.00 C 894.32 382.18 896.51 398.01 895.00 413.00 C 893.49 427.99 898.34 444.44 895.00 459.00
C 894.75 460.07 893.69 462.14 893.00 463.00
C 887.94 469.26 869.75 466.00 862.00 466.00
C 856.52 466.00 848.20 466.85 843.00 466.00 C 837.80 465.15 827.46 468.58 824.00 465.00
C 817.19 464.79 814.11 450.59 808.70 446.30 C 803.28 442.02 798.50 432.94 793.70 427.30 C 788.89 421.66 783.56 414.35 778.75 408.25 C 773.93 402.16 768.71 395.31 764.08 388.92 C 759.45 382.53 753.26 376.77 748.75 370.25 C 744.24 363.72 738.01 357.86 734.00 351.00
C 733.61 350.33 733.38 349.84 733.00 349.00
C 720.47 331.47 705.87 313.88 692.00 297.00
C 689.98 294.55 687.85 291.41 686.00 289.00
C 676.10 276.09 665.54 262.44 655.00 250.00
C 654.13 248.97 653.52 247.29 652.00 247.00
C 651.33 317.84 653.34 389.99 651.00 460.00
C 649.28 464.66 647.48 464.17 643.00 465.00
C 632.30 466.99 619.03 466.15 608.00 466.00 C 596.97 465.85 582.27 470.15 580.00 457.00
C 575.82 432.73 580.00 404.91 580.00 380.00
C 579.73 377.18 579.73 373.76 580.00 371.00
C 580.00 366.33 580.00 361.67 580.00 357.00
C 579.73 354.18 579.73 350.76 580.00 348.00
C 580.00 343.00 580.00 338.00 580.00 333.00
C 579.70 329.86 579.70 326.08 580.00 323.00
C 580.00 313.49 580.00 305.44 580.00 296.00
C 579.70 292.86 579.70 289.08 580.00 286.00
C 580.00 281.67 580.00 277.33 580.00 273.00
C 579.73 270.18 579.73 266.76 580.00 264.00
C 580.00 248.05 578.46 233.37 580.00 217.00
C 579.95 216.77 579.05 216.35 579.00 216.00
C 578.57 212.98 578.71 209.04 579.00 206.00
C 579.39 201.85 580.00 197.49 580.00 193.00
C 579.70 189.86 579.70 186.08 580.00 183.00
C 580.00 178.67 580.00 174.33 580.00 170.00
C 579.73 167.18 579.73 163.76 580.00 161.00
C 580.00 153.44 579.32 145.52 580.00 138.00
C 580.36 134.04 581.47 130.04 586.00 129.00
C 595.38 126.85 606.26 129.42 616.00 129.00 C 625.74 128.58 637.22 128.12 647.00 129.00
C 653.93 129.02 655.97 137.85 660.25 141.75 C 664.53 145.64 667.99 152.84 672.00 157.00
M 958.00 135.00 
C 962.28 138.80 966.64 143.42 971.00 147.00
C 981.07 155.27 990.80 165.62 1001.00 174.00
C 1002.78 175.46 1005.13 177.28 1007.00 179.00
C 1007.85 179.78 1009.12 180.33 1010.00 181.00
C 1012.67 183.02 1017.63 186.55 1018.00 190.00
C 1021.90 193.78 1017.95 203.20 1019.00 209.00 C 1020.05 214.80 1018.50 223.64 1019.00 230.00 C 1019.50 236.36 1018.78 243.35 1019.00 250.00 C 1019.22 256.65 1018.88 264.22 1019.00 271.00 C 1019.12 277.78 1018.90 285.23 1019.00 292.00 C 1019.10 298.77 1018.86 305.31 1019.00 312.00 C 1019.14 318.69 1018.73 326.47 1019.00 333.00 C 1019.27 339.53 1018.39 346.88 1019.00 353.00 C 1019.61 359.12 1017.72 368.69 1019.00 374.00 C 1020.28 379.31 1015.73 390.98 1020.00 394.00
C 1031.57 393.31 1043.40 394.00 1055.00 394.00
C 1094.00 394.00 1133.00 394.00 1172.00 394.00
C 1174.96 394.00 1178.06 393.73 1181.00 394.00
C 1186.29 394.48 1187.03 396.01 1190.00 400.00
C 1197.13 409.58 1205.00 418.44 1212.00 428.00
C 1212.86 429.17 1214.03 430.76 1215.00 432.00
C 1218.15 436.02 1225.73 442.74 1227.75 447.25 C 1229.78 451.75 1240.81 460.10 1238.00 464.00
C 1233.60 470.13 1219.70 464.60 1212.00 466.00 C 1204.30 467.40 1191.67 465.35 1183.00 466.00 C 1174.33 466.65 1164.14 465.72 1155.00 466.00 C 1145.86 466.28 1135.34 465.88 1126.00 466.00 C 1116.66 466.12 1107.43 465.98 1098.00 466.00 C 1088.57 466.02 1078.46 466.04 1069.00 466.00 C 1059.54 465.96 1050.47 466.15 1041.00 466.00 C 1031.53 465.85 1021.45 466.34 1012.00 466.00 C 1002.55 465.66 993.39 466.80 984.00 466.00 C 974.61 465.20 964.25 467.71 955.00 466.00
C 953.54 465.73 952.04 464.67 951.00 464.00
C 941.53 457.90 948.61 438.77 947.00 427.00 C 945.39 415.23 947.73 397.89 947.00 385.00 C 946.27 372.11 947.28 357.44 947.00 344.00 C 946.72 330.56 947.03 315.70 947.00 302.00 C 946.97 288.30 946.82 273.75 947.00 260.00 C 947.18 246.25 946.46 232.74 947.00 219.00 C 947.54 205.26 945.77 190.67 947.00 177.00 C 948.23 163.33 944.27 148.39 947.00 135.00
C 948.60 127.12 954.24 131.65 958.00 135.00
M 93.00 186.00 
C 91.50 185.03 86.25 182.39 85.00 179.00
C 86.28 178.47 86.86 179.97 88.00 180.00
C 80.24 170.92 80.14 165.62 88.75 157.75 C 97.37 149.89 99.77 147.83 107.25 139.25 C 114.72 130.66 122.74 134.18 130.00 140.00
C 132.17 150.06 144.96 156.74 151.30 165.70 C 157.65 174.66 167.24 182.94 174.25 191.75 C 181.26 200.56 191.40 208.79 198.25 217.75 C 205.10 226.71 214.73 234.56 221.75 243.25 C 228.77 251.93 238.34 260.57 244.75 269.25 C 251.16 277.92 266.35 286.03 266.98 297.03 C 267.60 308.02 250.60 315.17 245.25 324.25 C 239.89 333.32 228.46 340.78 221.75 349.75 C 215.04 358.72 205.94 367.45 198.25 376.25 C 190.55 385.04 183.57 393.37 175.25 402.25 C 166.92 411.13 159.71 417.74 151.75 427.75 C 143.79 437.77 135.94 442.29 128.25 454.25 C 120.56 466.20 106.30 456.21 99.25 447.75 C 92.19 439.29 75.23 430.56 83.75 419.75 C 92.28 408.95 99.48 403.33 107.75 393.75 C 116.03 384.18 122.34 376.58 130.75 367.75 C 139.16 358.92 146.30 351.14 154.25 342.25 C 162.19 333.36 169.38 324.34 177.77 315.77 C 186.16 307.20 197.85 298.88 187.25 289.75 C 176.64 280.62 172.85 273.10 163.75 264.25 C 154.65 255.40 148.72 246.49 140.25 237.75 C 131.78 229.01 124.87 220.98 116.75 212.25 C 108.63 203.52 101.43 194.19 93.00 186.00
M 525.00 411.00 
C 528.85 425.36 524.53 436.48 526.00 452.00 C 527.47 467.52 507.40 462.82 495.00 463.00 C 482.60 463.18 466.27 462.90 453.00 463.00 C 439.73 463.10 423.50 462.92 410.00 463.00 C 396.50 463.08 381.27 462.89 368.00 463.00 C 354.73 463.11 338.56 462.78 326.00 463.00 C 313.44 463.22 293.71 466.80 296.00 451.00 C 298.29 435.20 291.91 423.97 298.00 410.00
C 301.73 401.45 321.28 407.22 332.00 406.00 C 342.72 404.78 360.04 406.47 372.00 406.00 C 383.96 405.53 399.72 406.03 412.00 406.00 C 424.28 405.97 440.11 405.62 452.00 406.00 C 463.89 406.38 481.46 404.95 492.00 406.00 C 502.54 407.05 522.43 401.40 525.00 411.00 Z"/>
</g>
<g fill="#65BD8C" fill-opacity="0.99" stroke="None">
<path d="
M 580.00 138.00 
C 579.73 136.80 581.76 138.96 582.00 141.00
C 583.77 155.84 581.18 171.04 582.00 186.00 C 582.82 200.96 581.58 215.93 582.00 231.00 C 582.42 246.07 581.69 261.90 582.00 277.00 C 582.31 292.10 581.59 306.93 582.00 322.00 C 582.41 337.07 581.23 353.01 582.00 368.00 C 582.77 382.99 580.33 398.22 582.00 413.00 C 583.67 427.78 578.40 444.67 582.00 459.00
C 585.93 465.22 592.61 464.46 600.00 464.00 C 607.39 463.54 616.94 464.69 624.00 464.00 C 631.06 463.31 640.79 464.75 643.00 465.00
C 647.48 464.17 649.28 464.66 651.00 460.00
C 651.23 458.49 649.24 448.03 650.00 441.00 C 650.76 433.97 649.64 423.64 650.00 416.00 C 650.36 408.36 649.85 399.94 650.00 392.00 C 650.15 384.06 649.93 375.07 650.00 367.00 C 650.07 358.93 649.97 351.14 650.00 343.00 C 650.03 334.86 649.99 326.17 650.00 318.00 C 650.01 309.83 649.99 302.21 650.00 294.00 C 650.01 285.79 650.00 277.27 650.00 269.00 C 650.00 260.73 650.00 252.29 650.00 244.00
C 653.77 244.00 658.05 248.21 658.00 252.00
C 656.75 251.70 656.29 250.17 655.00 250.00
C 665.54 262.44 676.10 276.09 686.00 289.00
C 686.66 289.46 688.96 290.48 690.75 292.25 C 692.55 294.01 692.33 297.86 692.00 297.00
C 705.87 313.88 720.47 331.47 733.00 349.00
C 731.97 346.73 728.90 345.71 729.00 343.00
C 731.47 344.16 738.36 352.05 734.00 351.00
C 738.01 357.86 744.24 363.72 748.75 370.25 C 753.26 376.77 759.45 382.53 764.08 388.92 C 768.71 395.31 773.93 402.16 778.75 408.25 C 783.56 414.35 788.89 421.66 793.70 427.30 C 798.50 432.94 803.28 442.02 808.70 446.30 C 814.11 450.59 817.19 464.79 824.00 465.00
C 823.75 464.74 824.00 464.00 824.00 464.00
C 822.49 463.27 820.78 461.85 821.00 460.00
C 831.01 465.82 844.16 462.28 856.00 463.00 C 867.84 463.72 881.78 462.54 893.00 463.00
C 893.69 462.14 894.75 460.07 895.00 459.00
C 894.66 459.82 892.68 459.94 892.00 460.00
C 893.96 452.52 892.78 445.01 893.00 437.00 C 893.22 428.99 892.90 420.11 893.00 412.00 C 893.11 403.89 892.95 396.17 893.00 388.00 C 893.05 379.83 892.98 371.22 893.00 363.00 C 893.02 354.78 892.98 346.20 893.00 338.00 C 893.02 329.80 892.97 322.18 893.00 314.00 C 893.03 305.82 892.95 297.17 893.00 289.00 C 893.05 280.83 892.90 272.05 893.00 264.00 C 893.10 255.95 892.76 247.83 893.00 240.00 C 893.24 232.17 892.50 222.41 893.00 215.00 C 893.50 207.59 890.98 196.75 895.00 194.00
C 893.62 184.10 878.70 175.98 872.08 168.92 C 865.47 161.85 853.82 153.17 847.25 146.75 C 840.68 140.33 825.38 123.86 823.00 136.00
C 823.32 138.62 826.09 147.80 825.00 155.00 C 823.91 162.20 825.51 171.45 825.00 179.00 C 824.49 186.55 825.22 194.25 825.00 202.00 C 824.78 209.75 825.10 218.12 825.00 226.00 C 824.90 233.88 825.05 242.09 825.00 250.00 C 824.95 257.91 825.04 264.99 825.00 273.00 C 824.96 281.01 825.04 288.81 825.00 297.00 C 824.96 305.19 825.08 311.36 825.00 320.00 C 824.92 328.64 825.17 334.45 825.00 344.00 C 824.83 353.55 820.45 349.01 818.00 343.00
C 814.98 339.32 813.09 334.07 809.00 331.00
C 807.99 333.15 803.02 328.04 804.00 326.00
C 806.22 326.49 805.74 329.57 808.00 330.00
C 801.13 319.19 792.14 308.80 784.00 299.00
C 784.73 299.42 779.33 297.80 778.00 295.00
C 778.46 293.14 780.04 294.84 781.00 295.00
C 769.42 280.89 758.78 265.72 747.00 252.00
C 747.48 252.98 748.23 253.78 748.00 255.00
C 746.93 253.28 740.23 248.52 744.00 248.00
C 733.25 233.96 722.16 217.69 710.25 204.75 C 698.35 191.80 690.48 173.12 676.00 163.00
C 673.81 165.28 672.02 157.04 672.00 157.00
C 667.99 152.84 664.53 145.64 660.25 141.75 C 655.97 137.85 653.93 129.02 647.00 129.00
C 647.04 129.00 647.00 130.00 647.00 130.00
C 646.89 129.83 634.00 131.93 629.00 131.00 C 624.00 130.07 614.02 131.89 608.00 131.00 C 601.98 130.11 592.18 132.42 586.00 131.00
C 586.11 131.03 583.76 130.26 586.00 129.00
C 581.47 130.04 580.36 134.04 580.00 138.00
M 850.00 152.00 
C 847.72 150.43 845.43 148.33 844.00 146.00
C 846.67 146.41 849.67 149.28 850.00 152.00 Z"/>
</g>
<g fill="#54B47F" fill-opacity="0.07" stroke="None">
<path d="
M 586.00 131.00 
C 594.98 131.58 606.12 129.59 616.00 130.00 C 625.88 130.41 637.12 130.90 647.00 130.00
C 647.00 130.00 647.04 129.00 647.00 129.00
C 637.22 128.12 625.74 128.58 616.00 129.00 C 606.26 129.42 595.38 126.85 586.00 129.00
C 583.76 130.26 586.11 131.03 586.00 131.00 Z"/>
</g>
<g fill="#4AAD74" fill-opacity="0.46" stroke="None">
<path d="
M 586.00 131.00 
C 592.18 132.42 601.98 130.11 608.00 131.00 C 614.02 131.89 624.00 130.07 629.00 131.00 C 634.00 131.93 646.89 129.83 647.00 130.00
C 637.12 130.90 625.88 130.41 616.00 130.00 C 606.12 129.59 594.98 131.58 586.00 131.00 Z"/>
</g>
<g fill="#65BD8C" fill-opacity="0.99" stroke="None">
<path d="
M 947.00 135.00 
C 947.02 137.85 950.21 144.52 949.00 150.00 C 947.79 155.48 949.57 162.25 949.00 168.00 C 948.43 173.75 949.24 179.02 949.00 185.00 C 948.76 190.98 949.11 196.74 949.00 203.00 C 948.89 209.26 949.05 214.28 949.00 221.00 C 948.95 227.72 949.02 230.10 949.00 238.00 C 948.98 245.90 949.00 245.85 949.00 256.00 C 949.00 266.15 949.00 280.83 949.00 291.00 C 949.00 301.17 948.99 300.79 949.00 309.00 C 949.01 317.21 948.98 318.39 949.00 326.00 C 949.02 333.61 948.96 335.81 949.00 344.00 C 949.04 352.19 948.91 351.76 949.00 362.00 C 949.09 372.24 948.87 386.75 949.00 397.00 C 949.13 407.25 948.27 406.49 949.00 415.00 C 949.73 423.51 947.01 423.61 949.00 432.00 C 950.99 440.39 945.32 458.33 951.00 464.00
C 952.04 464.67 953.54 465.73 955.00 466.00
C 954.18 465.66 954.06 463.68 954.00 463.00
C 965.18 464.99 976.29 463.77 988.00 464.00 C 999.71 464.23 1012.14 463.91 1024.00 464.00 C 1035.86 464.09 1048.09 463.99 1060.00 464.00 C 1071.91 464.01 1084.11 464.06 1096.00 464.00 C 1107.89 463.94 1120.19 464.18 1132.00 464.00 C 1143.81 463.82 1156.40 464.41 1168.00 464.00 C 1179.60 463.59 1192.87 464.91 1204.00 464.00 C 1215.13 463.09 1230.07 467.81 1236.00 460.00
C 1237.10 460.84 1238.04 462.46 1238.00 464.00
C 1240.81 460.10 1229.78 451.75 1227.75 447.25 C 1225.73 442.74 1218.15 436.02 1215.00 432.00
C 1213.32 430.74 1212.85 429.93 1212.00 428.00
C 1205.00 418.44 1197.13 409.58 1190.00 400.00
C 1177.15 391.56 1155.91 398.80 1139.00 397.00 C 1122.09 395.20 1100.75 397.74 1083.00 397.00 C 1065.25 396.26 1044.18 397.66 1027.00 396.00
C 1023.99 396.29 1018.51 397.06 1017.00 394.00
C 1013.87 389.41 1018.40 379.78 1017.00 374.00 C 1015.60 368.22 1017.60 360.39 1017.00 354.00 C 1016.40 347.61 1017.28 339.62 1017.00 333.00 C 1016.72 326.38 1017.12 319.74 1017.00 313.00 C 1016.88 306.26 1017.06 298.77 1017.00 292.00 C 1016.94 285.23 1017.02 278.76 1017.00 272.00 C 1016.98 265.24 1017.01 258.81 1017.00 252.00 C 1016.99 245.19 1017.00 237.84 1017.00 231.00 C 1017.00 224.16 1017.00 217.86 1017.00 211.00 C 1017.00 204.14 1017.00 196.90 1017.00 190.00
C 1017.00 189.50 1017.00 189.00 1017.00 189.00
C 1014.81 187.09 1011.05 186.05 1010.00 183.00
C 1009.85 182.55 1010.17 181.43 1010.00 181.00
C 1009.12 180.33 1007.85 179.78 1007.00 179.00
C 1004.33 177.84 1002.58 176.44 1001.00 174.00
C 990.80 165.62 981.07 155.27 971.00 147.00
C 966.21 145.06 960.99 138.98 958.00 135.00
C 954.24 131.65 948.60 127.12 947.00 135.00 Z"/>
</g>
<g fill="#010101" fill-opacity="1.00" stroke="None">
<path d="
M 88.00 180.00 
C 89.62 181.90 91.29 184.29 93.00 186.00
C 101.43 194.19 108.63 203.52 116.75 212.25 C 124.87 220.98 131.78 229.01 140.25 237.75 C 148.72 246.49 154.65 255.40 163.75 264.25 C 172.85 273.10 176.64 280.62 187.25 289.75 C 197.85 298.88 186.16 307.20 177.77 315.77 C 169.38 324.34 162.19 333.36 154.25 342.25 C 146.30 351.14 139.16 358.92 130.75 367.75 C 122.34 376.58 116.03 384.18 107.75 393.75 C 99.48 403.33 92.28 408.95 83.75 419.75 C 75.23 430.56 92.19 439.29 99.25 447.75 C 106.30 456.21 120.56 466.20 128.25 454.25 C 135.94 442.29 143.79 437.77 151.75 427.75 C 159.71 417.74 166.92 411.13 175.25 402.25 C 183.57 393.37 190.55 385.04 198.25 376.25 C 205.94 367.45 215.04 358.72 221.75 349.75 C 228.46 340.78 239.89 333.32 245.25 324.25 C 250.60 315.17 267.60 308.02 266.98 297.03 C 266.35 286.03 251.16 277.92 244.75 269.25 C 238.34 260.57 228.77 251.93 221.75 243.25 C 214.73 234.56 205.10 226.71 198.25 217.75 C 191.40 208.79 181.26 200.56 174.25 191.75 C 167.24 182.94 157.65 174.66 151.30 165.70 C 144.96 156.74 132.17 150.06 130.00 140.00
C 122.74 134.18 114.72 130.66 107.25 139.25 C 99.77 147.83 97.37 149.89 88.75 157.75 C 80.14 165.62 80.24 170.92 88.00 180.00 Z"/>
</g>
<g fill="#5ABD8F" fill-opacity="0.47" stroke="None">
<path d="
M 823.00 136.00 
C 819.97 151.43 823.07 169.22 822.00 185.00
C 822.06 187.21 823.00 191.07 823.00 194.00
C 823.00 213.95 823.00 232.09 823.00 252.00
C 823.00 255.33 823.00 258.67 823.00 262.00
C 823.00 277.84 822.42 293.82 823.00 309.00
C 823.18 313.74 822.30 319.04 822.00 323.00
C 821.36 331.38 824.82 339.93 822.00 348.00
C 822.46 345.37 819.27 344.55 818.00 343.00
C 820.45 349.01 824.83 353.55 825.00 344.00 C 825.17 334.45 824.92 328.64 825.00 320.00 C 825.08 311.36 824.96 305.19 825.00 297.00 C 825.04 288.81 824.96 281.01 825.00 273.00 C 825.04 264.99 824.95 257.91 825.00 250.00 C 825.05 242.09 824.90 233.88 825.00 226.00 C 825.10 218.12 824.78 209.75 825.00 202.00 C 825.22 194.25 824.49 186.55 825.00 179.00 C 825.51 171.45 823.91 162.20 825.00 155.00 C 826.09 147.80 823.32 138.62 823.00 136.00 Z"/>
</g>
<g fill="#62B685" fill-opacity="0.45" stroke="None">
<path d="
M 951.00 464.00 
C 945.32 458.33 950.99 440.39 949.00 432.00 C 947.01 423.61 949.73 423.51 949.00 415.00 C 948.27 406.49 949.13 407.25 949.00 397.00 C 948.87 386.75 949.09 372.24 949.00 362.00 C 948.91 351.76 949.04 352.19 949.00 344.00 C 948.96 335.81 949.02 333.61 949.00 326.00 C 948.98 318.39 949.01 317.21 949.00 309.00 C 948.99 300.79 949.00 301.17 949.00 291.00 C 949.00 280.83 949.00 266.15 949.00 256.00 C 949.00 245.85 948.98 245.90 949.00 238.00 C 949.02 230.10 948.95 227.72 949.00 221.00 C 949.05 214.28 948.89 209.26 949.00 203.00 C 949.11 196.74 948.76 190.98 949.00 185.00 C 949.24 179.02 948.43 173.75 949.00 168.00 C 949.57 162.25 947.79 155.48 949.00 150.00 C 950.21 144.52 947.02 137.85 947.00 135.00
C 944.27 148.39 948.23 163.33 947.00 177.00 C 945.77 190.67 947.54 205.26 947.00 219.00 C 946.46 232.74 947.18 246.25 947.00 260.00 C 946.82 273.75 946.97 288.30 947.00 302.00 C 947.03 315.70 946.72 330.56 947.00 344.00 C 947.28 357.44 946.27 372.11 947.00 385.00 C 947.73 397.89 945.39 415.23 947.00 427.00 C 948.61 438.77 941.53 457.90 951.00 464.00 Z"/>
</g>
<g fill="#55B685" fill-opacity="0.30" stroke="None">
<path d="
M 971.00 147.00 
C 966.64 143.42 962.28 138.80 958.00 135.00
C 960.99 138.98 966.21 145.06 971.00 147.00 Z"/>
</g>
<g fill="#58B682" fill-opacity="0.24" stroke="None">
<path d="
M 580.00 138.00 
C 579.32 145.52 580.00 153.44 580.00 161.00
C 580.00 164.00 580.00 167.00 580.00 170.00
C 580.00 174.33 580.00 178.67 580.00 183.00
C 580.00 186.33 580.00 189.67 580.00 193.00
C 580.00 197.49 579.39 201.85 579.00 206.00
C 579.01 209.19 580.03 212.57 579.00 216.00
C 579.05 216.35 579.95 216.77 580.00 217.00
C 582.27 192.76 582.29 164.91 582.00 141.00
C 581.76 138.96 579.73 136.80 580.00 138.00 Z"/>
</g>
<g fill="#57B584" fill-opacity="0.53" stroke="None">
<path d="
M 580.00 217.00 
C 578.46 233.37 580.00 248.05 580.00 264.00
C 580.00 267.00 580.00 270.00 580.00 273.00
C 580.00 277.33 580.00 281.67 580.00 286.00
C 580.00 289.33 580.00 292.67 580.00 296.00
C 580.00 305.44 580.00 313.49 580.00 323.00
C 580.00 326.33 580.00 329.67 580.00 333.00
C 580.00 338.00 580.00 343.00 580.00 348.00
C 580.00 351.00 580.00 354.00 580.00 357.00
C 580.00 361.67 580.00 366.33 580.00 371.00
C 580.00 374.00 580.00 377.00 580.00 380.00
C 580.00 404.91 575.82 432.73 580.00 457.00
C 580.27 457.63 581.64 458.43 582.00 459.00
C 578.40 444.67 583.67 427.78 582.00 413.00 C 580.33 398.22 582.77 382.99 582.00 368.00 C 581.23 353.01 582.41 337.07 582.00 322.00 C 581.59 306.93 582.31 292.10 582.00 277.00 C 581.69 261.90 582.42 246.07 582.00 231.00 C 581.58 215.93 582.82 200.96 582.00 186.00 C 581.18 171.04 583.77 155.84 582.00 141.00
C 582.29 164.91 582.27 192.76 580.00 217.00 Z"/>
</g>
<g fill="#5FB283" fill-opacity="0.54" stroke="None">
<path d="
M 850.00 152.00 
C 849.67 149.28 846.67 146.41 844.00 146.00
C 845.43 148.33 847.72 150.43 850.00 152.00 Z"/>
</g>
<g fill="#5AAF7C" fill-opacity="0.35" stroke="None">
<path d="
M 676.00 163.00 
C 676.00 163.00 676.05 162.49 676.00 162.00
C 675.88 161.74 675.04 161.35 675.00 161.00
C 675.00 161.00 675.05 160.50 675.00 160.00
C 674.88 159.74 674.20 159.31 674.00 159.00
C 673.37 158.01 672.77 157.80 672.00 157.00
C 672.02 157.04 673.81 165.28 676.00 163.00 Z"/>
</g>
<g fill="#00FFFF" fill-opacity="0.00" stroke="None">
<path d="
M 675.00 160.00 
C 674.97 159.65 674.24 159.25 674.00 159.00
C 674.20 159.31 674.88 159.74 675.00 160.00 Z"/>
</g>
<g fill="#00FFFF" fill-opacity="0.00" stroke="None">
<path d="
M 580.00 170.00 
C 580.00 167.00 580.00 164.00 580.00 161.00
C 579.73 163.76 579.73 167.18 580.00 170.00 Z"/>
</g>
<g fill="#60BF80" fill-opacity="0.03" stroke="None">
<path d="
M 676.00 162.00 
C 675.97 161.65 675.12 161.26 675.00 161.00
C 675.04 161.35 675.88 161.74 676.00 162.00 Z"/>
</g>
<g fill="#5BB58E" fill-opacity="0.31" stroke="None">
<path d="
M 1007.00 179.00 
C 1005.13 177.28 1002.78 175.46 1001.00 174.00
C 1002.58 176.44 1004.33 177.84 1007.00 179.00 Z"/>
</g>
<g fill="#000000" fill-opacity="0.42" stroke="None">
<path d="
M 93.00 186.00 
C 91.29 184.29 89.62 181.90 88.00 180.00
C 86.86 179.97 86.28 178.47 85.00 179.00
C 86.25 182.39 91.50 185.03 93.00 186.00 Z"/>
</g>
<g fill="#57AF83" fill-opacity="0.07" stroke="None">
<path d="
M 1010.00 183.00 
C 1012.28 184.83 1015.46 185.85 1017.00 189.00
C 1017.00 189.00 1017.00 189.50 1017.00 190.00
C 1017.25 190.25 1018.00 190.00 1018.00 190.00
C 1017.63 186.55 1012.67 183.02 1010.00 181.00
C 1010.17 181.43 1009.85 182.55 1010.00 183.00 Z"/>
</g>
<g fill="#00FFFF" fill-opacity="0.00" stroke="None">
<path d="
M 580.00 193.00 
C 580.00 189.67 580.00 186.33 580.00 183.00
C 579.70 186.08 579.70 189.86 580.00 193.00 Z"/>
</g>
<g fill="#53AE7A" fill-opacity="0.53" stroke="None">
<path d="
M 1017.00 189.00 
C 1015.46 185.85 1012.28 184.83 1010.00 183.00
C 1011.05 186.05 1014.81 187.09 1017.00 189.00 Z"/>
</g>
<g fill="#00FFFF" fill-opacity="0.00" stroke="None">
<path d="
M 823.00 194.00 
C 823.00 191.07 822.06 187.21 822.00 185.00
C 821.78 188.17 822.76 191.54 823.00 194.00 Z"/>
</g>
<g fill="#5DB784" fill-opacity="0.38" stroke="None">
<path d="
M 1017.00 394.00 
C 1018.00 395.47 1018.88 394.07 1020.00 394.00
C 1015.73 390.98 1020.28 379.31 1019.00 374.00 C 1017.72 368.69 1019.61 359.12 1019.00 353.00 C 1018.39 346.88 1019.27 339.53 1019.00 333.00 C 1018.73 326.47 1019.14 318.69 1019.00 312.00 C 1018.86 305.31 1019.10 298.77 1019.00 292.00 C 1018.90 285.23 1019.12 277.78 1019.00 271.00 C 1018.88 264.22 1019.22 256.65 1019.00 250.00 C 1018.78 243.35 1019.50 236.36 1019.00 230.00 C 1018.50 223.64 1020.05 214.80 1019.00 209.00 C 1017.95 203.20 1021.90 193.78 1018.00 190.00
C 1018.00 190.00 1017.25 190.25 1017.00 190.00
C 1017.00 196.90 1017.00 204.14 1017.00 211.00 C 1017.00 217.86 1017.00 224.16 1017.00 231.00 C 1017.00 237.84 1016.99 245.19 1017.00 252.00 C 1017.01 258.81 1016.98 265.24 1017.00 272.00 C 1017.02 278.76 1016.94 285.23 1017.00 292.00 C 1017.06 298.77 1016.88 306.26 1017.00 313.00 C 1017.12 319.74 1016.72 326.38 1017.00 333.00 C 1017.28 339.62 1016.40 347.61 1017.00 354.00 C 1017.60 360.39 1015.60 368.22 1017.00 374.00 C 1018.40 379.78 1013.87 389.41 1017.00 394.00 Z"/>
</g>
<g fill="#5CB483" fill-opacity="0.32" stroke="None">
<path d="
M 895.00 459.00 
C 898.34 444.44 893.49 427.99 895.00 413.00 C 896.51 398.01 894.32 382.18 895.00 367.00 C 895.68 351.82 894.71 336.26 895.00 321.00 C 895.29 305.74 894.89 290.30 895.00 275.00 C 895.11 259.70 895.00 244.30 895.00 229.00
C 894.67 225.60 894.00 221.08 894.00 217.00
C 894.00 212.59 894.65 207.66 895.00 204.00
C 895.00 200.77 895.45 197.19 895.00 194.00
C 890.98 196.75 893.50 207.59 893.00 215.00 C 892.50 222.41 893.24 232.17 893.00 240.00 C 892.76 247.83 893.10 255.95 893.00 264.00 C 892.90 272.05 893.05 280.83 893.00 289.00 C 892.95 297.17 893.03 305.82 893.00 314.00 C 892.97 322.18 893.02 329.80 893.00 338.00 C 892.98 346.20 893.02 354.78 893.00 363.00 C 892.98 371.22 893.05 379.83 893.00 388.00 C 892.95 396.17 893.11 403.89 893.00 412.00 C 892.90 420.11 893.22 428.99 893.00 437.00 C 892.78 445.01 893.96 452.52 892.00 460.00
C 892.68 459.94 894.66 459.82 895.00 459.00 Z"/>
</g>
<g fill="#6A9A99" fill-opacity="0.01" stroke="None">
<path d="
M 894.00 217.00 
C 894.00 216.96 895.00 217.00 895.00 217.00
C 895.00 212.67 895.00 208.33 895.00 204.00
C 894.65 207.66 894.00 212.59 894.00 217.00 Z"/>
</g>
<g fill="#808080" fill-opacity="0.01" stroke="None">
<path d="
M 579.00 216.00 
C 580.03 212.57 579.01 209.19 579.00 206.00
C 578.71 209.04 578.57 212.98 579.00 216.00 Z"/>
</g>
<g fill="#60C790" fill-opacity="0.02" stroke="None">
<path d="
M 895.00 229.00 
C 895.00 225.00 895.00 221.00 895.00 217.00
C 895.00 217.00 894.00 216.96 894.00 217.00
C 894.00 221.08 894.67 225.60 895.00 229.00 Z"/>
</g>
<g fill="#5EB885" fill-opacity="0.41" stroke="None">
<path d="
M 651.00 460.00 
C 653.34 389.99 651.33 317.84 652.00 247.00
C 653.52 247.29 654.13 248.97 655.00 250.00
C 656.29 250.17 656.75 251.70 658.00 252.00
C 658.05 248.21 653.77 244.00 650.00 244.00
C 650.00 252.29 650.00 260.73 650.00 269.00 C 650.00 277.27 650.01 285.79 650.00 294.00 C 649.99 302.21 650.01 309.83 650.00 318.00 C 649.99 326.17 650.03 334.86 650.00 343.00 C 649.97 351.14 650.07 358.93 650.00 367.00 C 649.93 375.07 650.15 384.06 650.00 392.00 C 649.85 399.94 650.36 408.36 650.00 416.00 C 649.64 423.64 650.76 433.97 650.00 441.00 C 649.24 448.03 651.23 458.49 651.00 460.00 Z"/>
</g>
<g fill="#5DB882" fill-opacity="0.34" stroke="None">
<path d="
M 747.00 252.00 
C 745.99 250.82 744.98 249.28 744.00 248.00
C 740.23 248.52 746.93 253.28 748.00 255.00
C 748.23 253.78 747.48 252.98 747.00 252.00 Z"/>
</g>
<g fill="#00FFFF" fill-opacity="0.00" stroke="None">
<path d="
M 823.00 262.00 
C 823.00 258.67 823.00 255.33 823.00 252.00
C 822.70 255.08 822.70 258.86 823.00 262.00 Z"/>
</g>
<g fill="#00FFFF" fill-opacity="0.00" stroke="None">
<path d="
M 580.00 273.00 
C 580.00 270.00 580.00 267.00 580.00 264.00
C 579.73 266.76 579.73 270.18 580.00 273.00 Z"/>
</g>
<g fill="#00FFFF" fill-opacity="0.00" stroke="None">
<path d="
M 580.00 296.00 
C 580.00 292.67 580.00 289.33 580.00 286.00
C 579.70 289.08 579.70 292.86 580.00 296.00 Z"/>
</g>
<g fill="#57B782" fill-opacity="0.33" stroke="None">
<path d="
M 686.00 289.00 
C 687.85 291.41 689.98 294.55 692.00 297.00
C 692.33 297.86 692.55 294.01 690.75 292.25 C 688.96 290.48 686.66 289.46 686.00 289.00 Z"/>
</g>
<g fill="#60B780" fill-opacity="0.35" stroke="None">
<path d="
M 784.00 299.00 
C 783.00 297.80 782.03 296.25 781.00 295.00
C 780.04 294.84 778.46 293.14 778.00 295.00
C 779.33 297.80 784.73 299.42 784.00 299.00 Z"/>
</g>
<g fill="#00FFFF" fill-opacity="0.00" stroke="None">
<path d="
M 822.00 323.00 
C 822.30 319.04 823.18 313.74 823.00 309.00
C 822.77 312.91 821.91 318.31 822.00 323.00 Z"/>
</g>
<g fill="#00FFFF" fill-opacity="0.00" stroke="None">
<path d="
M 580.00 333.00 
C 580.00 329.67 580.00 326.33 580.00 323.00
C 579.70 326.08 579.70 329.86 580.00 333.00 Z"/>
</g>
<g fill="#4DB078" fill-opacity="0.48" stroke="None">
<path d="
M 809.00 331.00 
C 808.73 330.80 808.29 330.23 808.00 330.00
C 805.74 329.57 806.22 326.49 804.00 326.00
C 803.02 328.04 807.99 333.15 809.00 331.00 Z"/>
</g>
<g fill="#5DAD7D" fill-opacity="0.43" stroke="None">
<path d="
M 733.00 349.00 
C 733.38 349.84 733.61 350.33 734.00 351.00
C 738.36 352.05 731.47 344.16 729.00 343.00
C 728.90 345.71 731.97 346.73 733.00 349.00 Z"/>
</g>
<g fill="#00FFFF" fill-opacity="0.00" stroke="None">
<path d="
M 580.00 357.00 
C 580.00 354.00 580.00 351.00 580.00 348.00
C 579.73 350.76 579.73 354.18 580.00 357.00 Z"/>
</g>
<g fill="#00FFFF" fill-opacity="0.00" stroke="None">
<path d="
M 580.00 380.00 
C 580.00 377.00 580.00 374.00 580.00 371.00
C 579.73 373.76 579.73 377.18 580.00 380.00 Z"/>
</g>
<g fill="#54B179" fill-opacity="0.26" stroke="None">
<path d="
M 1027.00 396.00 
C 1035.93 395.14 1046.20 395.26 1055.00 394.00
C 1043.40 394.00 1031.57 393.31 1020.00 394.00
C 1018.88 394.07 1018.00 395.47 1017.00 394.00
C 1018.51 397.06 1023.99 396.29 1027.00 396.00 Z"/>
</g>
<g fill="#51B27B" fill-opacity="0.48" stroke="None">
<path d="
M 1027.00 396.00 
C 1044.18 397.66 1065.25 396.26 1083.00 397.00 C 1100.75 397.74 1122.09 395.20 1139.00 397.00 C 1155.91 398.80 1177.15 391.56 1190.00 400.00
C 1187.03 396.01 1186.29 394.48 1181.00 394.00
C 1178.60 394.01 1174.47 394.24 1172.00 394.00
C 1133.00 394.00 1094.00 394.00 1055.00 394.00
C 1046.20 395.26 1035.93 395.14 1027.00 396.00 Z"/>
</g>
<g fill="#4EBD71" fill-opacity="0.02" stroke="None">
<path d="
M 1181.00 394.00 
C 1178.06 393.73 1174.96 394.00 1172.00 394.00
C 1174.47 394.24 1178.60 394.01 1181.00 394.00 Z"/>
</g>
<g fill="#000000" fill-opacity="0.40" stroke="None">
<path d="
M 298.00 410.00 
C 303.98 404.02 316.73 409.39 325.00 408.00 C 333.27 406.61 344.99 408.61 354.00 408.00 C 363.01 407.39 373.69 408.23 383.00 408.00 C 392.31 407.77 402.62 408.01 412.00 408.00 C 421.38 407.99 431.75 407.80 441.00 408.00 C 450.25 408.20 461.16 407.44 470.00 408.00 C 478.84 408.56 491.13 406.72 499.00 408.00 C 506.87 409.28 520.52 403.83 525.00 411.00
C 522.43 401.40 502.54 407.05 492.00 406.00 C 481.46 404.95 463.89 406.38 452.00 406.00 C 440.11 405.62 424.28 405.97 412.00 406.00 C 399.72 406.03 383.96 405.53 372.00 406.00 C 360.04 406.47 342.72 404.78 332.00 406.00 C 321.28 407.22 301.73 401.45 298.00 410.00 Z"/>
</g>
<g fill="#010101" fill-opacity="1.00" stroke="None">
<path d="
M 298.00 410.00 
C 291.91 423.97 298.29 435.20 296.00 451.00 C 293.71 466.80 313.44 463.22 326.00 463.00 C 338.56 462.78 354.73 463.11 368.00 463.00 C 381.27 462.89 396.50 463.08 410.00 463.00 C 423.50 462.92 439.73 463.10 453.00 463.00 C 466.27 462.90 482.60 463.18 495.00 463.00 C 507.40 462.82 527.47 467.52 526.00 452.00 C 524.53 436.48 528.85 425.36 525.00 411.00
C 520.52 403.83 506.87 409.28 499.00 408.00 C 491.13 406.72 478.84 408.56 470.00 408.00 C 461.16 407.44 450.25 408.20 441.00 408.00 C 431.75 407.80 421.38 407.99 412.00 408.00 C 402.62 408.01 392.31 407.77 383.00 408.00 C 373.69 408.23 363.01 407.39 354.00 408.00 C 344.99 408.61 333.27 406.61 325.00 408.00 C 316.73 409.39 303.98 404.02 298.00 410.00 Z"/>
</g>
<g fill="#5FAF82" fill-opacity="0.25" stroke="None">
<path d="
M 1215.00 432.00 
C 1214.03 430.76 1212.86 429.17 1212.00 428.00
C 1212.85 429.93 1213.32 430.74 1215.00 432.00 Z"/>
</g>
<g fill="#56B27D" fill-opacity="0.27" stroke="None">
<path d="
M 643.00 465.00 
C 640.79 464.75 631.06 463.31 624.00 464.00 C 616.94 464.69 607.39 463.54 600.00 464.00 C 592.61 464.46 585.93 465.22 582.00 459.00
C 581.64 458.43 580.27 457.63 580.00 457.00
C 582.27 470.15 596.97 465.85 608.00 466.00 C 619.03 466.15 632.30 466.99 643.00 465.00 Z"/>
</g>
<g fill="#57B581" fill-opacity="0.57" stroke="None">
<path d="
M 824.00 464.00 
C 836.82 462.84 850.20 464.86 862.00 466.00
C 869.75 466.00 887.94 469.26 893.00 463.00
C 881.78 462.54 867.84 463.72 856.00 463.00 C 844.16 462.28 831.01 465.82 821.00 460.00
C 820.78 461.85 822.49 463.27 824.00 464.00 Z"/>
</g>
<g fill="#55B67F" fill-opacity="0.29" stroke="None">
<path d="
M 955.00 466.00 
C 964.25 467.71 974.61 465.20 984.00 466.00 C 993.39 466.80 1002.55 465.66 1012.00 466.00 C 1021.45 466.34 1031.53 465.85 1041.00 466.00 C 1050.47 466.15 1059.54 465.96 1069.00 466.00 C 1078.46 466.04 1088.57 466.02 1098.00 466.00 C 1107.43 465.98 1116.66 466.12 1126.00 466.00 C 1135.34 465.88 1145.86 466.28 1155.00 466.00 C 1164.14 465.72 1174.33 466.65 1183.00 466.00 C 1191.67 465.35 1204.30 467.40 1212.00 466.00 C 1219.70 464.60 1233.60 470.13 1238.00 464.00
C 1238.04 462.46 1237.10 460.84 1236.00 460.00
C 1230.07 467.81 1215.13 463.09 1204.00 464.00 C 1192.87 464.91 1179.60 463.59 1168.00 464.00 C 1156.40 464.41 1143.81 463.82 1132.00 464.00 C 1120.19 464.18 1107.89 463.94 1096.00 464.00 C 1084.11 464.06 1071.91 464.01 1060.00 464.00 C 1048.09 463.99 1035.86 464.09 1024.00 464.00 C 1012.14 463.91 999.71 464.23 988.00 464.00 C 976.29 463.77 965.18 464.99 954.00 463.00
C 954.06 463.68 954.18 465.66 955.00 466.00 Z"/>
</g>
<g fill="#53B37E" fill-opacity="0.24" stroke="None">
<path d="
M 824.00 465.00 
C 827.46 468.58 837.80 465.15 843.00 466.00 C 848.20 466.85 856.52 466.00 862.00 466.00
C 850.20 464.86 836.82 462.84 824.00 464.00
C 824.00 464.00 823.75 464.74 824.00 465.00 Z"/>
</g>
</svg>