<?xml version="1.0" encoding="UTF-8"?>
<svg version="1.1" xmlns="http://www.w3.org/2000/svg" width="1024" height="454">
<path d="M0 0 C2.16719715 2.35802676 4.01981763 4.89282106 5.875 7.5 C6.66825684 8.58269165 6.66825684 8.58269165 7.47753906 9.68725586 C10.81834361 14.26780409 14.05768244 18.91217508 17.109375 23.69140625 C18.88649386 25.86140056 20.6513055 27.43610937 22.796875 29.2265625 C27.15055573 32.94994763 30.27332547 37.10892476 33.5 41.8125 C34.633633 43.42183083 35.76903722 45.02991552 36.90625 46.63671875 C37.4425 47.39774902 37.97875 48.1587793 38.53125 48.94287109 C41.50649509 53.10999462 44.74284327 57.05246766 48 61 C61.35978042 77.26002531 61.35978042 77.26002531 67.27734375 85.58984375 C69.43002962 88.60165142 71.68900428 91.52502941 73.96875 94.44140625 C75 96 75 96 75 98 C75.66 98 76.32 98 77 98 C78.66781049 99.9210706 80.21505964 101.85080081 81.75 103.875 C82.7315317 105.15122562 83.71331556 106.42725733 84.6953125 107.703125 C85.22286133 108.39212891 85.75041016 109.08113281 86.29394531 109.79101562 C88.11044901 112.14300839 89.95450132 114.47130024 91.8046875 116.796875 C92.43922852 117.59883301 93.07376953 118.40079102 93.72753906 119.22705078 C94.9777357 120.8070085 96.23219863 122.38360112 97.49121094 123.95654297 C98.06387695 124.68502441 98.63654297 125.41350586 99.2265625 126.1640625 C99.73783691 126.80811035 100.24911133 127.4521582 100.77587891 128.11572266 C102 130 102 130 102.48583984 132.17724609 C102.74034912 133.07950928 102.74034912 133.07950928 103 134 C103.99 134.33 104.98 134.66 106 135 C107.77838295 137.04765558 109.42957985 139.09143726 111.0625 141.25 C111.54493164 141.87680664 112.02736328 142.50361328 112.52441406 143.14941406 C113.52774317 144.45420064 114.52819904 145.76120128 115.52587891 147.0703125 C116.90679981 148.87799697 118.29989058 150.6752958 119.69921875 152.46875 C124.19670092 158.24648764 128.54332234 164.08860541 132.625 170.171875 C133.8830132 172.1273363 133.8830132 172.1273363 136 173 C135.9278125 171.71931641 135.855625 170.43863281 135.78125 169.11914062 C135.05869342 155.45045669 134.90884037 141.83318232 134.98141479 128.14788818 C135.01439716 121.67413753 135.0292348 115.20038656 135.03515625 108.7265625 C135.03616176 107.69277151 135.03616176 107.69277151 135.03718758 106.63809586 C135.04385459 94.45249184 134.9166897 82.2702396 134.74609375 70.0859375 C134.73386402 69.20384361 134.72163429 68.32174973 134.70903397 67.41292572 C134.58658729 58.64253375 134.45531596 49.87232779 134.30902004 41.10230064 C134.2552599 37.82023639 134.20587904 34.53811467 134.15730476 31.25597 C134.13353992 29.72925958 134.10766367 28.20258026 134.07946587 26.67594528 C133.67047606 4.51778477 133.67047606 4.51778477 136.54344177 1.23800659 C137.02410599 0.82946442 137.5047702 0.42092224 138 0 C144.12364362 1.37781982 147.56056999 4.83707428 152 9 C157.47489689 14.04223027 162.95092088 19.01800831 168.75 23.6875 C172.50344337 26.71687486 175.96549152 29.84089987 179.3125 33.30859375 C181.19681745 35.19727305 183.17070775 36.94134347 185.1875 38.6875 C186.18523437 39.55955078 186.18523437 39.55955078 187.203125 40.44921875 C188.59763163 41.65273861 190.01346847 42.83156387 191.4375 44 C195.0899114 48.6750866 194.15035391 56.161343 194.15390015 61.90116882 C194.16047353 63.21060187 194.16047353 63.21060187 194.1671797 64.54648811 C194.18048861 67.45897289 194.18672843 70.37142748 194.19287109 73.28393555 C194.2007777 75.37697484 194.20904699 77.47001278 194.21765137 79.56304932 C194.24378583 86.42092603 194.25916082 93.27880863 194.2734375 100.13671875 C194.27879889 102.49886389 194.28417641 104.861009 194.28956985 107.22315407 C194.31117738 117.04307241 194.32991753 126.86298916 194.34119225 136.68292522 C194.35746024 150.75778908 194.39073142 164.83237823 194.44759309 178.90713853 C194.4862257 188.80619875 194.50581644 198.70518526 194.51111281 208.60431892 C194.51477264 214.51777265 194.52686306 220.43093278 194.55921555 226.34430504 C194.58918194 231.9003784 194.59564892 237.45597866 194.58383179 243.01211548 C194.58361016 245.05356925 194.59198846 247.09504431 194.60948563 249.13642311 C194.63203617 251.91811955 194.62394879 254.69807928 194.60800171 257.4797821 C194.6218838 258.29212789 194.63576588 259.10447367 194.65006864 259.94143599 C194.59451025 263.85981987 194.37100818 265.60792754 191.63134193 268.50314045 C188.58345139 270.23695695 186.82381562 270.47794667 183.3359375 270.42578125 C182.22613525 270.41853027 181.11633301 270.4112793 179.97290039 270.40380859 C178.78559326 270.37367676 177.59828613 270.34354492 176.375 270.3125 C175.14837646 270.29268066 173.92175293 270.27286133 172.65795898 270.25244141 C170.0798946 270.20604908 167.50198531 270.15018887 164.92431641 270.08544922 C161.05657365 270.00123185 157.19278733 269.98110182 153.32421875 269.97265625 C150.90361571 269.9424267 148.48303937 269.90995782 146.0625 269.875 C144.9266748 269.87798096 143.79084961 269.88096191 142.62060547 269.8840332 C134.98421106 269.69530102 134.98421106 269.69530102 132.24511719 267.76025391 C130.92578125 266.21875 130.92578125 266.21875 129 263 C128.48695313 262.24976563 127.97390625 261.49953125 127.4453125 260.7265625 C127.00960937 260.03304688 126.57390625 259.33953125 126.125 258.625 C124.10368762 255.52565435 121.98156142 252.74392915 119.5 250 C117.19194324 247.44215355 115.21603093 244.91037225 113.375 242 C109.96485304 236.70650109 105.95396848 231.94229349 101.95947266 227.0871582 C97.85341093 222.08534548 93.94925716 216.98195976 90.09765625 211.78125 C86.5438665 207.0693351 82.7539264 202.55276194 79 198 C72.77952472 190.4548547 66.78430139 182.86040421 61.3125 174.75 C56.88002519 168.18032732 52.10957899 162.0630411 47 156 C44.80173067 153.34208614 42.6172593 150.67310765 40.4375 148 C39.87522705 147.31067383 39.3129541 146.62134766 38.73364258 145.91113281 C34.96437499 141.26165023 31.41245444 136.4979527 27.94140625 131.62109375 C25.81596766 128.75153783 23.55786011 126.03731107 21.25 123.3125 C16.12600873 117.25254747 11.3866975 110.94164462 6.6640625 104.56640625 C4.50643738 101.6575339 2.28519073 98.81045968 0 96 C-1.1417997 99.42539911 -1.11438275 102.02242623 -1.10006714 105.635849 C-1.09880487 106.3134597 -1.09754259 106.99107041 -1.09624207 107.68921477 C-1.0908553 109.96464424 -1.07832955 112.23997967 -1.06591797 114.51538086 C-1.06072582 116.14477904 -1.05601748 117.77417883 -1.05175781 119.40357971 C-1.04181018 122.91488533 -1.02895811 126.42616438 -1.01403427 129.93745232 C-0.9909987 135.48779662 -0.97767586 141.03813724 -0.96633911 146.58851624 C-0.93288102 162.37245259 -0.89123631 178.15633604 -0.82861328 193.94018555 C-0.79411643 202.65551193 -0.77029045 211.37079912 -0.75840485 220.08618647 C-0.75162581 224.69961842 -0.73913688 229.3128842 -0.71337509 233.92625237 C-0.68915254 238.26414621 -0.67872994 242.60185043 -0.67897034 246.9398098 C-0.67654482 248.53296816 -0.66894995 250.12612818 -0.65584183 251.71923447 C-0.63870703 253.89212021 -0.64002205 256.0642401 -0.64596558 258.23716736 C-0.64190138 259.45372481 -0.63783718 260.67028227 -0.63364983 261.9237051 C-1.03095296 265.25991646 -1.63906329 266.64996356 -4 269 C-6.22531128 269.5146637 -6.22531128 269.5146637 -8.85107422 269.53344727 C-9.83574677 269.5492836 -10.82041931 269.56511993 -11.83493042 269.58143616 C-13.42871017 269.57399635 -13.42871017 269.57399635 -15.0546875 269.56640625 C-16.69523605 269.57570412 -16.69523605 269.57570412 -18.368927 269.58518982 C-20.68393055 269.59229789 -22.99898511 269.58909688 -25.31396484 269.57641602 C-28.85480139 269.56257893 -32.39298174 269.59657531 -35.93359375 269.63476562 C-38.18229231 269.63571706 -40.43099418 269.63385668 -42.6796875 269.62890625 C-43.73815887 269.64216446 -44.79663025 269.65542267 -45.88717651 269.66908264 C-53.23880276 269.57610494 -53.23880276 269.57610494 -57.1496582 266.61621094 C-64.98554129 255.53700218 -61.53485066 233.25989987 -60.49560547 220.41908264 C-60.00042795 213.64399969 -59.87047066 206.9251664 -59.90234375 200.13452148 C-59.90380402 198.93013931 -59.90526428 197.72575714 -59.9067688 196.48487854 C-59.91152998 193.21363722 -59.92069787 189.94244323 -59.93153763 186.67121768 C-59.94170464 183.17535411 -59.94507007 179.67948422 -59.94897461 176.18360901 C-59.9618353 165.79351122 -59.98600208 155.40344279 -60.01037598 145.0133667 C-60.03398125 134.86178082 -60.05239261 124.71020251 -60.0625 114.55859375 C-60.0632893 113.84635761 -60.0640786 113.13412147 -60.06489182 112.40030241 C-60.08902744 88.92311591 -59.82551608 65.46261378 -59.28578186 41.99068928 C-59.09898782 33.77711714 -58.9416966 25.5651583 -58.90625 17.34936523 C-58.89652161 16.18740804 -58.89652161 16.18740804 -58.88659668 15.00197697 C-58.8840466 11.96528481 -58.9728406 9.13476442 -59.57392883 6.1521759 C-60 4 -60 4 -58.91088867 1.21582031 C-57 -1 -57 -1 -54.4699707 -1.55175781 C-53.46538818 -1.51920898 -52.46080566 -1.48666016 -51.42578125 -1.453125 C-50.29406494 -1.4320166 -49.16234863 -1.4109082 -47.99633789 -1.38916016 C-46.78067139 -1.3432373 -45.56500488 -1.29731445 -44.3125 -1.25 C-41.77613889 -1.19576562 -39.23967003 -1.14637721 -36.703125 -1.1015625 C-35.41986328 -1.07610352 -34.13660156 -1.05064453 -32.81445312 -1.02441406 C-26.04849889 -0.98110918 -19.30368502 -1.38091067 -12.55395508 -1.82128906 C-3.44121314 -2.32662552 -3.44121314 -2.32662552 0 0 Z " fill="#6ABD8E" transform="translate(523,104)"/>
<path d="M0 0 C2.34375 -0.421875 2.34375 -0.421875 5 0 C7.21875 1.546875 7.21875 1.546875 9.5 3.75 C10.36367188 4.56726563 11.22734375 5.38453125 12.1171875 6.2265625 C12.57963867 6.67290039 13.04208984 7.11923828 13.51855469 7.57910156 C16.1831106 10.13475671 18.90907313 12.6242116 21.625 15.125 C22.46297119 15.90061279 22.46297119 15.90061279 23.31787109 16.69189453 C26.8201325 19.93104609 30.3683338 23.10552079 33.9765625 26.2265625 C37.46832773 29.28691272 40.88110636 32.4344741 44.30859375 35.56640625 C47.30602923 38.27671438 50.35663789 40.91715514 53.44140625 43.52734375 C55.92996397 45.87868777 56.95840527 47.50470933 57.24609566 50.93039227 C57.24333028 52.74033279 57.24333028 52.74033279 57.24050903 54.58683777 C57.24221788 55.25910363 57.24392673 55.93136949 57.24568737 56.62400705 C57.24898693 58.88120033 57.2379711 61.13809768 57.22705078 63.39526367 C57.22648677 65.01144911 57.22680304 66.62763505 57.22793579 68.24382019 C57.22851069 72.63610915 57.21673424 77.02828934 57.20278788 81.42055297 C57.19030332 86.00898551 57.18911182 90.59742041 57.18673706 95.18586731 C57.18051559 103.87686988 57.16409576 112.56782226 57.14403808 121.25880271 C57.12169981 131.1522683 57.11069087 141.04573626 57.10064721 150.93922079 C57.07973011 171.29284189 57.04454119 191.64641779 57 212 C58.08680746 211.92949779 59.17361492 211.85899557 60.29335594 211.78635693 C68.90227934 211.24349557 77.47114814 210.85072622 86.10009766 210.85473633 C87.18373596 210.85137772 88.26737427 210.8480191 89.3838501 210.84455872 C92.89393316 210.8352137 96.40396785 210.83311516 99.9140625 210.83203125 C102.38406391 210.82881105 104.85406513 210.82544642 107.32406616 210.82194519 C112.46588586 210.81599804 117.60768884 210.8141011 122.74951172 210.81469727 C129.33202744 210.81479953 135.91443685 210.80106174 142.49692726 210.78392506 C147.582433 210.7728118 152.66791277 210.77077773 157.75342941 210.77130699 C160.18147529 210.77012917 162.60952188 210.7657185 165.03755569 210.75797462 C168.4230633 210.7481731 171.80833625 210.75105177 175.19384766 210.75708008 C176.18925568 210.75146057 177.1846637 210.74584106 178.2102356 210.74005127 C190.29152889 210.79469075 190.29152889 210.79469075 194.8293457 214.48950195 C195.27366943 215.06659912 195.71799316 215.64369629 196.17578125 216.23828125 C196.68842529 216.88700195 197.20106934 217.53572266 197.72924805 218.20410156 C198.25172119 218.89987305 198.77419434 219.59564453 199.3125 220.3125 C199.87300049 221.03018555 200.43350098 221.74787109 201.01098633 222.48730469 C202.69100364 224.64572169 204.34766238 226.82035292 206 229 C206.90269347 230.17651258 207.80626506 231.35235221 208.7109375 232.52734375 C210.34551853 234.65207687 211.9732211 236.78149771 213.59765625 238.9140625 C216.0402355 242.05168463 218.55963695 245.08717283 221.125 248.125 C234 263.46499209 234 263.46499209 234 268 C229.34113301 269.17437315 224.82679818 269.15838159 220.05581665 269.17167664 C219.15401842 269.17802574 218.25222018 269.18437485 217.32309473 269.19091636 C214.30085463 269.21095945 211.27862546 269.22401365 208.25634766 269.23706055 C206.08965321 269.24991487 203.9229611 269.26316934 201.75627136 269.27679443 C195.86994078 269.3123976 189.98359505 269.34163494 184.09722185 269.36918616 C180.42012818 269.38668988 176.74304421 269.40556588 173.06595993 269.42493629 C160.23930628 269.49247984 147.41263927 269.55488461 134.5859375 269.61254883 C122.62702367 269.66644645 110.66820627 269.73155104 98.70937884 269.80188721 C88.44346687 269.86177209 78.1775345 269.91383486 67.91155088 269.95981437 C61.77952331 269.98741209 55.64755181 270.01818585 49.51558304 270.05682945 C43.74873886 270.09290237 37.98193123 270.11924408 32.21500587 270.1381073 C30.09902423 270.14668023 27.98305335 270.15872157 25.86711311 270.17449379 C22.97740646 270.1954915 20.0879226 270.20394406 17.19815063 270.20927429 C15.94400201 270.22282606 15.94400201 270.22282606 14.66451705 270.2366516 C9.73777888 270.22961254 5.62122329 269.77936165 1 268 C-1.09586481 264.85620278 -1.25211165 264.12998354 -1.26729965 260.54748535 C-1.27599854 259.63071266 -1.28469743 258.71393997 -1.29365993 257.76938629 C-1.29308943 256.76074272 -1.29251894 255.75209915 -1.29193115 254.71289062 C-1.29913469 253.64255333 -1.30633822 252.57221603 -1.31376004 251.46944427 C-1.33553438 247.86502801 -1.34301716 244.26072208 -1.35058594 240.65625 C-1.36315169 238.07942292 -1.37656383 235.50259985 -1.39076233 232.92578125 C-1.42368681 226.64263265 -1.4458256 220.35948993 -1.46412745 214.07628345 C-1.47918972 208.97100433 -1.49811352 203.86575317 -1.51981354 198.76049805 C-1.52289536 198.03462604 -1.52597719 197.30875403 -1.52915241 196.56088591 C-1.53542904 195.08641366 -1.54171447 193.61194146 -1.54800859 192.13746929 C-1.60660552 178.30272536 -1.65298154 164.46796091 -1.69521323 150.63315868 C-1.73175712 138.75538929 -1.77879584 126.87769917 -1.83349609 115 C-1.89697223 101.21565285 -1.95393302 87.43130422 -2.0004847 73.64688873 C-2.00546436 72.17775978 -2.0104526 70.70863085 -2.01544952 69.23950195 C-2.01790508 68.51661216 -2.02036064 67.79372237 -2.02289061 67.04892683 C-2.04066968 61.94820662 -2.06313329 56.84751926 -2.08739471 51.74682617 C-2.11989419 44.8850997 -2.1417661 38.02340859 -2.15640068 31.16162109 C-2.16340279 28.63760173 -2.17386032 26.11358934 -2.18795204 23.58959961 C-2.20657325 20.15538548 -2.21291173 16.72136735 -2.21600342 13.28710938 C-2.22853201 11.77414402 -2.22853201 11.77414402 -2.2413137 10.23061371 C-2.2395816 9.31384102 -2.2378495 8.39706833 -2.23606491 7.45251465 C-2.23877797 6.65938622 -2.24149103 5.86625778 -2.2442863 5.04909515 C-2 3 -2 3 0 0 Z " fill="#6ABD8E" transform="translate(759,104)"/>
<path d="M0 0 C2.52404612 2.13995214 3.45371257 3.2030726 5 5.9375 C7.34013513 10.01754079 10.3944616 13.12704374 13.75 16.375 C17.97874782 20.46915597 21.71056949 24.60372093 25.22265625 29.34375 C27.60285177 32.35978971 30.32667284 34.97024712 33.07421875 37.6484375 C35.21728268 39.77755525 37.13226944 41.9686317 38.875 44.4375 C38.875 45.0975 38.875 45.7575 38.875 46.4375 C40.36 46.9325 40.36 46.9325 41.875 47.4375 C43.41796875 49.00390625 43.41796875 49.00390625 45.0625 51 C47.55826212 53.94762642 50.11719097 56.73324066 52.875 59.4375 C56.72557476 63.24295084 60.61812505 67.10178523 63.875 71.4375 C63.875 72.0975 63.875 72.7575 63.875 73.4375 C65.36 73.9325 65.36 73.9325 66.875 74.4375 C68.27734375 75.828125 68.27734375 75.828125 69.8125 77.6875 C73.07081715 81.53383616 76.44262322 85.24750905 79.875 88.9375 C83.65881461 93.01643591 87.38493261 97.12971333 91.02734375 101.3359375 C93.48418882 104.13040398 95.98845316 106.87970441 98.5 109.625 C98.95576416 110.12459229 99.41152832 110.62418457 99.88110352 111.13891602 C102.05901289 113.51284119 104.26917237 115.82651604 106.5625 118.08984375 C110.3587683 121.94382559 112.75726898 125.27909797 113.0625 130.875 C110.42704908 138.78135277 103.08203362 144.26916362 97.28515625 149.99609375 C94.60309287 152.71293266 92.12233933 155.55171039 89.64453125 158.453125 C87.68338623 160.65237813 85.61062818 162.69405131 83.5 164.75 C79.31601475 168.86994466 75.66803808 173.29241427 72 177.87109375 C69.66513538 180.69095782 67.17418471 183.23049094 64.546875 185.7734375 C62.15009166 188.15902091 59.96579027 190.71005926 57.7578125 193.26953125 C54.97768605 196.4707142 52.12687309 199.60707301 49.28125 202.75 C47.34908027 204.90800775 45.44247382 207.08298749 43.54296875 209.26953125 C40.01450559 213.30895449 36.3710122 217.22718853 32.6875 221.125 C31.37726697 222.51791206 30.06737631 223.91114624 28.7578125 225.3046875 C28.10973633 225.99401367 27.46166016 226.68333984 26.79394531 227.39355469 C23.87403595 230.50366679 20.96383185 233.62255538 18.0625 236.75 C17.56532471 237.28262451 17.06814941 237.81524902 16.5559082 238.36401367 C14.44365114 240.64569716 12.60516316 242.84225526 10.875 245.4375 C10.215 245.4375 9.555 245.4375 8.875 245.4375 C8.6275 245.99050781 8.38 246.54351562 8.125 247.11328125 C6.63734655 249.87938688 4.8418053 252.17733973 2.875 254.625 C1.823125 255.94564453 1.823125 255.94564453 0.75 257.29296875 C-1.19284549 259.51509827 -2.13023185 260.27445709 -5.0078125 260.74609375 C-10.67929248 261.07215445 -13.73943317 260.00311123 -18.07421875 256.36328125 C-21.17794603 253.44873354 -24.19456826 250.46067498 -27.14453125 247.390625 C-29.16713179 245.27269893 -29.16713179 245.27269893 -32.125 243.4375 C-32.125 242.7775 -32.125 242.1175 -32.125 241.4375 C-32.785 241.4375 -33.445 241.4375 -34.125 241.4375 C-38.14295056 235.4714522 -38.14295056 235.4714522 -38.06640625 231.0625 C-36.9625493 226.8119637 -35.03998997 224.49837375 -32 221.5 C-30.99780541 220.46570781 -29.99650446 219.43054898 -28.99609375 218.39453125 C-28.50608887 217.89518066 -28.01608398 217.39583008 -27.51123047 216.88134766 C-25.02685511 214.29371189 -22.75689687 211.5228136 -20.46484375 208.765625 C-19.125 207.4375 -19.125 207.4375 -17.125 207.4375 C-16.91875 206.91285156 -16.7125 206.38820313 -16.5 205.84765625 C-14.52948678 202.39366007 -11.8593654 199.74156938 -9.125 196.875 C-8.03978852 195.72964118 -6.95638535 194.58256568 -5.875 193.43359375 C-5.39546875 192.93013428 -4.9159375 192.4266748 -4.421875 191.90795898 C-2.90877818 190.25870675 -2.90877818 190.25870675 -1.125 187.4375 C-0.465 187.4375 0.195 187.4375 0.875 187.4375 C1.11863281 186.86515625 1.36226562 186.2928125 1.61328125 185.703125 C3.10017298 183.03316462 4.85583908 181.29920993 7.0625 179.1875 C10.56928052 175.7590208 13.86864566 172.25392647 17.0625 168.53515625 C19.13350341 166.13832688 21.25103218 163.78749818 23.375 161.4375 C26.63645125 157.82345942 29.85859155 154.17960646 33.0546875 150.5078125 C35.1812232 148.08922039 37.33969106 145.70096037 39.5 143.3125 C40.62921875 142.04599609 40.62921875 142.04599609 41.78125 140.75390625 C43.02271255 139.38042249 44.28609837 138.02546731 45.59375 136.71484375 C48.15019755 134.05187756 48.88311259 132.84599283 48.80859375 129.09375 C47.68133507 124.67904656 46.16150796 123.16075824 42.8125 120.125 C41.80457093 119.18266996 40.80070718 118.23597435 39.80078125 117.28515625 C39.30400879 116.81352051 38.80723633 116.34188477 38.29541016 115.85595703 C35.48419255 113.04860497 33.12440155 109.88494962 30.7265625 106.7265625 C28.60491574 104.10359836 26.27629542 101.80682551 23.875 99.4375 C21.8946038 97.353594 19.94631361 95.24072075 18 93.125 C17.46681152 92.54669434 16.93362305 91.96838867 16.38427734 91.37255859 C13.7153541 88.46950502 11.07415653 85.55036025 8.5 82.5625 C5.06565433 78.58677965 1.46794427 74.7691967 -2.125 70.9375 C-6.32332709 66.45932087 -10.48334172 61.96665696 -14.49609375 57.3203125 C-19.46373784 51.57833539 -24.50633037 45.99395737 -30 40.75 C-34.54572379 36.24394221 -36.64386737 32.80542838 -37.5625 26.375 C-36.60286715 19.93175085 -31.68353836 15.82388069 -27 11.75 C-24.02014791 9.13101729 -21.34720992 6.77081488 -19.125 3.4375 C-18.465 3.4375 -17.805 3.4375 -17.125 3.4375 C-16.898125 2.81875 -16.67125 2.2 -16.4375 1.5625 C-12.65255779 -4.56550167 -5.52916604 -2.76458302 0 0 Z " fill="#C8C9C8" transform="translate(101.125,108.5625)"/>
<path d="M0 0 C0.71536596 -0.00709439 1.43073192 -0.01418877 2.16777563 -0.02149814 C4.55954419 -0.03906942 6.94968568 -0.02097975 9.34143066 -0.00291443 C11.05817911 -0.00805363 12.77492229 -0.01533491 14.49165344 -0.02459717 C19.15083395 -0.04311945 23.80944258 -0.03016747 28.46859932 -0.01050687 C33.34430741 0.00587414 38.21997911 -0.0029325 43.09570312 -0.00802612 C51.2836623 -0.01254769 59.47139308 0.00332669 67.65930176 0.03126526 C77.12577463 0.06331744 86.59183556 0.06330163 96.05833769 0.04605049 C105.1646615 0.03018694 114.27083428 0.03691786 123.37715149 0.0539875 C127.25267049 0.06086027 131.12806851 0.05982323 135.00358582 0.05244255 C139.5673642 0.04478163 144.13067375 0.05689942 148.69437218 0.08429146 C150.36932165 0.09117842 152.04431489 0.09126991 153.71926308 0.08407593 C156.0058295 0.07538665 158.29094728 0.09132616 160.57739258 0.11352539 C162.49650326 0.11773577 162.49650326 0.11773577 164.45438385 0.12203121 C168.36862916 0.7162245 170.03332585 1.83226449 172.78869629 4.62818909 C174.1080639 9.14181513 173.80318837 13.94724834 173.78869629 18.62818909 C173.79127441 19.66201721 173.79385254 20.69584534 173.79650879 21.76100159 C173.78853874 25.25985185 173.73355299 28.75505466 173.66369629 32.25318909 C173.65451172 33.4038385 173.64532715 34.55448792 173.63586426 35.74000549 C173.6012207 36.8297467 173.56657715 37.91948792 173.53088379 39.04225159 C173.50880859 40.02145569 173.4867334 41.00065979 173.46398926 42.00953674 C172.51635103 45.68429006 170.9522982 46.59506063 167.78869629 48.62818909 C164.47000122 49.12876034 164.47000122 49.12876034 160.61535645 49.12939453 C159.90407404 49.13492893 159.19279163 49.14046332 158.45995522 49.14616543 C156.08219843 49.15975309 153.7054948 49.14481398 151.32775879 49.12989807 C149.62086542 49.13368195 147.91397513 49.13918257 146.20709229 49.14627075 C141.57483841 49.16023365 136.94295562 49.14904976 132.31072235 49.13255954 C127.46304533 49.1187099 122.61538986 49.12516902 117.7677002 49.12869263 C109.6268516 49.13139482 101.48615043 49.11791838 93.34533691 49.09474182 C83.93344925 49.06813204 74.5218081 49.06638496 65.10989571 49.07813019 C56.05591808 49.08890947 47.00202963 49.08271971 37.94805908 49.06857491 C34.09488823 49.06281641 30.24178265 49.06289672 26.38861084 49.0676403 C21.85117312 49.07241269 17.31400533 49.06229756 12.77661896 49.04068565 C11.11133993 49.03512118 9.44603494 49.03464938 7.78075409 49.03963852 C5.50754859 49.04559488 3.23516738 49.03308036 0.96203613 49.01586914 C-0.94601303 49.0122243 -0.94601303 49.0122243 -2.89260864 49.00850582 C-6.49587052 48.59557822 -8.3482161 47.81597864 -11.21130371 45.62818909 C-14.53172588 40.64755584 -13.77678177 34.86622507 -13.96130371 29.00318909 C-14.0167334 27.75666565 -14.07216309 26.51014221 -14.12927246 25.22584534 C-14.70567911 8.68472127 -14.70567911 8.68472127 -10.10359955 3.04547215 C-6.47312417 0.01124359 -4.68498957 0.00214697 0 0 Z " fill="#C8C8C8" transform="translate(248.2113037109375,323.37181091308594)"/>
<path d="M0 0 C35.97 0 71.94 0 109 0 C109 0.33 109 0.66 109 1 C106.69 1 104.38 1 102 1 C102 1.66 102 2.32 102 3 C68.01 3 34.02 3 -1 3 C-0.67 2.01 -0.34 1.02 0 0 Z " fill="#68B389" transform="translate(860,370)"/>
<path d="M0 0 C2 2 2 2 2.24609566 4.43252754 C2.24425207 5.4630921 2.24240849 6.49365665 2.24050903 7.55545044 C2.24325836 8.73618134 2.24600769 9.91691223 2.24884033 11.13342285 C2.24164978 12.43533569 2.23445923 13.73724854 2.22705078 15.07861328 C2.22648687 16.45820101 2.22680284 17.83778933 2.22793579 19.21737671 C2.22851108 22.969257 2.21672847 26.72101015 2.20278788 30.47286081 C2.1903097 34.39131436 2.18911232 38.30977062 2.18673706 42.22824097 C2.1805137 49.65138931 2.16409135 57.07447894 2.14403808 64.49760139 C2.12170566 72.94729737 2.11069235 81.39699612 2.10064721 89.84671426 C2.07972584 107.23117683 2.04453329 124.61558221 2 142 C1.67 142 1.34 142 1 142 C0.67 122.2 0.34 102.4 0 82 C-0.33 82 -0.66 82 -1 82 C-1.17701137 71.89932151 -1.34296388 61.7985278 -1.49477577 51.69743729 C-1.56561514 47.00716594 -1.64027153 42.31701995 -1.72363281 37.62695312 C-1.80393146 33.10131147 -1.8742275 28.5756151 -1.93757248 24.04970551 C-1.96350835 22.32247945 -1.99305629 20.59530376 -2.02626419 18.86820221 C-2.07214006 16.45025445 -2.10520287 14.0324468 -2.13525391 11.61425781 C-2.1517952 10.89928131 -2.16833649 10.18430481 -2.18537903 9.44766235 C-2.21675516 5.78209345 -2.02548243 3.11337428 0 0 Z " fill="#79CBA5" transform="translate(659,113)"/>
<path d="M0 0 C0.99 0 1.98 0 3 0 C3.04667598 16.00265725 3.08196719 32.0052925 3.10362434 48.00800133 C3.11394644 55.43797452 3.12802453 62.86790548 3.15087891 70.29785156 C3.1707843 76.77215783 3.18370964 83.24643351 3.18817699 89.72076952 C3.19078923 93.15036531 3.19694832 96.57987358 3.21146011 100.00944138 C3.2275111 103.83362241 3.22798152 107.65771703 3.22705078 111.48193359 C3.23424133 112.62488388 3.24143188 113.76783417 3.24884033 114.94541931 C3.246091 115.98310959 3.24334167 117.02079987 3.24050903 118.0899353 C3.24235262 118.99513601 3.24419621 119.90033672 3.24609566 120.83296776 C3 123 3 123 1 125 C0.67 83.75 0.34 42.5 0 0 Z " fill="#79C194" transform="translate(757,113)"/>
<path d="M0 0 C25.74 0 51.48 0 78 0 C77.67 0.99 77.34 1.98 77 3 C67.25580177 3.06941478 57.51166205 3.12276776 47.76726723 3.15543652 C43.24286816 3.17111343 38.71863786 3.19238839 34.19433594 3.22631836 C29.83067535 3.25883996 25.46717739 3.27683774 21.103405 3.28463173 C19.43596205 3.29018824 17.76852831 3.30103834 16.10115433 3.31719017 C13.77117711 3.33886932 11.44187773 3.34197101 9.11181641 3.34057617 C8.41770157 3.351362 7.72358673 3.36214783 7.00843811 3.3732605 C5.08779907 3.36076355 5.08779907 3.36076355 2 3 C1.34 2.01 0.68 1.02 0 0 Z " fill="#66B287" transform="translate(769,370)"/>
<path d="M0 0 C0.33 0 0.66 0 1 0 C1 35.31 1 70.62 1 107 C0.67 107 0.34 107 0 107 C-0.33 80.93 -0.66 54.86 -1 28 C-1.33 28 -1.66 28 -2 28 C-2 25.03 -2 22.06 -2 19 C-1.67 19 -1.34 19 -1 19 C-0.67 12.73 -0.34 6.46 0 0 Z " fill="#84C69F" transform="translate(465,166)"/>
<path d="M0 0 C0.99 0 1.98 0 3 0 C3 17.49 3 34.98 3 53 C2.34 52.67 1.68 52.34 1 52 C0.67 34.84 0.34 17.68 0 0 Z " fill="#86C8A0" transform="translate(757,113)"/>
<path d="M0 0 C0.72822464 0.0028299 1.45644928 0.00565979 2.20674133 0.00857544 C4.52992262 0.01975993 6.85271672 0.04486084 9.17578125 0.0703125 C10.75194755 0.08034456 12.3281199 0.08947002 13.90429688 0.09765625 C17.76577392 0.11969354 21.62696196 0.15421109 25.48828125 0.1953125 C25.15828125 1.1853125 24.82828125 2.1753125 24.48828125 3.1953125 C19.96746159 3.22448487 15.44666637 3.2421693 10.92578125 3.2578125 C9.64896484 3.26619141 8.37214844 3.27457031 7.05664062 3.28320312 C5.19555664 3.28803711 5.19555664 3.28803711 3.296875 3.29296875 C1.59229126 3.30082397 1.59229126 3.30082397 -0.14672852 3.30883789 C-3.66380442 3.19018155 -7.0394302 2.75311761 -10.51171875 2.1953125 C-6.86867011 -0.23338659 -4.20449536 -0.06144425 0 0 Z " fill="#7CCBA7" transform="translate(687.51171875,370.8046875)"/>
<path d="M0 0 C0 0.33 0 0.66 0 1 C23.265 1.495 23.265 1.495 47 2 C47 2.33 47 2.66 47 3 C38.20300166 3.04634424 29.40604536 3.08187981 20.60895157 3.10362434 C16.5240879 3.11406072 12.43930778 3.12821724 8.35449219 3.15087891 C4.41228158 3.17261251 0.47015133 3.18456973 -3.47211456 3.18975449 C-4.97600825 3.19344931 -6.47989755 3.20066437 -7.98375702 3.21146011 C-10.09050493 3.22598206 -12.19692101 3.22797767 -14.30371094 3.22705078 C-16.10240631 3.23371262 -16.10240631 3.23371262 -17.93743896 3.24050903 C-20.87292348 3.00997957 -22.52969667 2.53985196 -25 1 C-22.33349537 0.83031334 -19.66684474 0.66418179 -17 0.5 C-16.25621094 0.45230469 -15.51242187 0.40460938 -14.74609375 0.35546875 C-9.82037776 0.05564256 -4.93485224 -0.04486229 0 0 Z " fill="#72C9A3" transform="translate(868,315)"/>
<path d="M0 0 C1.58203125 1.9453125 1.58203125 1.9453125 2.8125 4.125 C3.23144531 4.84945312 3.65039062 5.57390625 4.08203125 6.3203125 C4.38496094 6.87460938 4.68789063 7.42890625 5 8 C4.01 8 3.02 8 2 8 C1.41702148 7.02208496 0.83404297 6.04416992 0.23339844 5.03662109 C-1.7012282 1.70588807 -1.7012282 1.70588807 -5.11621094 1.31884766 C-6.31020508 1.35026855 -7.50419922 1.38168945 -8.734375 1.4140625 C-10.67763672 1.44306641 -10.67763672 1.44306641 -12.66015625 1.47265625 C-14.02346165 1.522785 -15.38674289 1.57357464 -16.75 1.625 C-18.12884865 1.65510869 -19.5077599 1.68248297 -20.88671875 1.70703125 C-24.25939731 1.77778674 -27.62890827 1.87648198 -31 2 C-29.68 1.67 -28.36 1.34 -27 1 C-27 0.34 -27 -0.32 -27 -1 C-23.43842366 -1.22677207 -19.87584575 -1.42815479 -16.3125 -1.625 C-15.30509766 -1.68945312 -14.29769531 -1.75390625 -13.25976562 -1.8203125 C-12.28330078 -1.871875 -11.30683594 -1.9234375 -10.30078125 -1.9765625 C-9.40528564 -2.02893066 -8.50979004 -2.08129883 -7.5871582 -2.13525391 C-4.65225854 -1.98182044 -2.62553099 -1.30032758 0 0 Z " fill="#5EAD8A" transform="translate(523,104)"/>
<path d="M0 0 C0.33 0 0.66 0 1 0 C1.21758571 4.05601098 1.41433073 8.1124512 1.59204102 12.17041016 C1.65536413 13.54991474 1.72431875 14.92917305 1.79907227 16.30810547 C1.90569778 18.29320058 1.990226 20.27944353 2.07421875 22.265625 C2.13182373 23.45961914 2.18942871 24.65361328 2.2487793 25.88378906 C1.97518621 29.31081769 1.4666491 30.64246926 -1 33 C-3.91796875 33.390625 -3.91796875 33.390625 -7.1875 33.25 C-8.27417969 33.21390625 -9.36085938 33.1778125 -10.48046875 33.140625 C-11.31191406 33.09421875 -12.14335937 33.0478125 -13 33 C-13 32.34 -13 31.68 -13 31 C-9.04 30.67 -5.08 30.34 -1 30 C-1.020625 28.576875 -1.04125 27.15375 -1.0625 25.6875 C-1.07375308 17.11264926 -0.4965908 8.55732362 0 0 Z " fill="#68B388" transform="translate(520,340)"/>
<path d="M0 0 C2.54194161 0.14188985 5.08347993 0.28839155 7.625 0.4375 C8.69427734 0.49647461 8.69427734 0.49647461 9.78515625 0.55664062 C13.91803682 0.80309681 17.92269024 1.23470053 22 2 C22 2.33 22 2.66 22 3 C14.74 3 7.48 3 0 3 C0 8.94 0 14.88 0 21 C-0.33 21 -0.66 21 -1 21 C-1.06058594 20.26394531 -1.12117188 19.52789062 -1.18359375 18.76953125 C-1.26738281 17.79371094 -1.35117187 16.81789063 -1.4375 15.8125 C-1.51871094 14.84957031 -1.59992188 13.88664062 -1.68359375 12.89453125 C-1.91573292 10.02767332 -1.91573292 10.02767332 -2.72265625 7.44921875 C-3.09788734 4.13555827 -1.89333652 2.65067112 0 0 Z " fill="#5FAE80" transform="translate(466,103)"/>
<path d="M0 0 C0.33 0 0.66 0 1 0 C2.54659574 8.69960102 2.31567432 17.28365762 1 26 C0.34 26 -0.32 26 -1 26 C-1.33 19.4 -1.66 12.8 -2 6 C-1.67 6 -1.34 6 -1 6 C-0.67 4.02 -0.34 2.04 0 0 Z " fill="#A0D3B6" transform="translate(464,325)"/>
<path d="M0 0 C8.91 0 17.82 0 27 0 C27 0.33 27 0.66 27 1 C20.565 1.495 20.565 1.495 14 2 C14 2.33 14 2.66 14 3 C9.38 3 4.76 3 0 3 C0 2.01 0 1.02 0 0 Z " fill="#78A591" transform="translate(833,315)"/>
<path d="M0 0 C4.29 0 8.58 0 13 0 C13.33 0.99 13.66 1.98 14 3 C8.06 3 2.12 3 -4 3 C-2.68 2.67 -1.36 2.34 0 2 C0 1.34 0 0.68 0 0 Z " fill="#56B173" transform="translate(496,103)"/>
<path d="M0 0 C0.66 0.33 1.32 0.66 2 1 C0.02 1.99 0.02 1.99 -2 3 C-1.34 2.01 -0.68 1.02 0 0 Z M-3 3 C-3 7.29755222 -5.56759296 9.17020409 -8.375 12.125 C-8.88289063 12.67542969 -9.39078125 13.22585938 -9.9140625 13.79296875 C-13.70366503 17.85183252 -13.70366503 17.85183252 -16 19 C-14.57699887 14.31095412 -11.84303666 11.48389525 -8.375 8.1875 C-7.859375 7.68541016 -7.34375 7.18332031 -6.8125 6.66601562 C-5.54840846 5.43703773 -4.27511194 4.21753999 -3 3 Z " fill="#C0C0BF" transform="translate(81,318)"/>
<path d="M0 0 C3.84725418 3.68088643 7.11385725 7.56185919 10.3125 11.8125 C10.76689453 12.40998047 11.22128906 13.00746094 11.68945312 13.62304688 C12.79633917 15.07947588 13.89865264 16.53937817 15 18 C14.67 18.66 14.34 19.32 14 20 C9 14.25 9 14.25 9 12 C8.01 11.67 7.02 11.34 6 11 C4.39453125 9.2578125 4.39453125 9.2578125 2.8125 7.125 C2.28269531 6.42632812 1.75289062 5.72765625 1.20703125 5.0078125 C0 3 0 3 0 0 Z " fill="#64B086" transform="translate(628,239)"/>
<path d="M0 0 C0.66 0.33 1.32 0.66 2 1 C-2.76008307 6.5930976 -7.74595676 11.86877855 -13 17 C-13 13.45042562 -12.51411281 13.11575285 -10.15625 10.64453125 C-9.56972656 10.02255859 -8.98320312 9.40058594 -8.37890625 8.75976562 C-7.75886719 8.11716797 -7.13882813 7.47457031 -6.5 6.8125 C-5.87996094 6.15830078 -5.25992188 5.50410156 -4.62109375 4.83007812 C-3.0872384 3.21363056 -1.54678589 1.60406254 0 0 Z " fill="#C1C1C1" transform="translate(146,246)"/>
<path d="M0 0 C5.42826525 0.85388442 8.75982764 4.80334655 12 9 C12.90115599 11.54612328 13 13.26320285 13 16 C12.34 16.33 11.68 16.66 11 17 C10.79375 15.989375 10.5875 14.97875 10.375 13.9375 C8.7193249 8.06521351 4.22008299 4.1822912 0 0 Z " fill="#69B089" transform="translate(704,141)"/>
<path d="M0 0 C0.99 0 1.98 0 3 0 C4.8671875 2.16015625 4.8671875 2.16015625 6.875 5.0625 C7.57367187 6.06023437 8.27234375 7.05796875 8.9921875 8.0859375 C9.65476562 9.04757812 10.31734375 10.00921875 11 11 C11.99712745 12.39788681 12.99655321 13.79414246 14 15.1875 C14.66 16.115625 15.32 17.04375 16 18 C12.86992239 16.64377365 11.08919863 15.23045264 8.984375 12.55859375 C8.45585938 11.89279297 7.92734375 11.22699219 7.3828125 10.54101562 C6.84398437 9.84685547 6.30515625 9.15269531 5.75 8.4375 C5.19570313 7.73947266 4.64140625 7.04144531 4.0703125 6.32226562 C0 1.1541718 0 1.1541718 0 0 Z " fill="#66AF87" transform="translate(621,325)"/>
<path d="M0 0 C3.1974038 3.00362175 6.08519986 6.1744862 8.875 9.5625 C9.79925781 10.67818359 9.79925781 10.67818359 10.7421875 11.81640625 C12 14 12 14 11.6953125 16.27734375 C11.46585938 16.84582031 11.23640625 17.41429687 11 18 C10.67 16.68 10.34 15.36 10 14 C9.34 14 8.68 14 8 14 C6.4921875 12.1015625 6.4921875 12.1015625 4.875 9.625 C4.33617187 8.81289062 3.79734375 8.00078125 3.2421875 7.1640625 C2 5 2 5 2 3 C1.34 3 0.68 3 0 3 C0 2.01 0 1.02 0 0 Z " fill="#6AAF87" transform="translate(577,174)"/>
<path d="M0 0 C0.33 0 0.66 0 1 0 C1.02892857 3.95831809 1.04677427 7.91660917 1.0625 11.875 C1.07087891 13.00292969 1.07925781 14.13085938 1.08789062 15.29296875 C1.09111328 16.36933594 1.09433594 17.44570312 1.09765625 18.5546875 C1.10289307 19.54968262 1.10812988 20.54467773 1.11352539 21.56982422 C1 24 1 24 0 26 C-0.66 26 -1.32 26 -2 26 C-2 23.69 -2 21.38 -2 19 C-1.67 19 -1.34 19 -1 19 C-0.67 12.73 -0.34 6.46 0 0 Z " fill="#76C49D" transform="translate(465,166)"/>
<path d="M0 0 C0 4.04016453 -1.46869212 4.9566059 -4.1875 7.875 C-5.00476563 8.75671875 -5.82203125 9.6384375 -6.6640625 10.546875 C-9.07166934 13.07526479 -11.49127434 15.57220098 -14 18 C-13.41187609 14.68107371 -12.37260416 12.97321601 -10.05859375 10.546875 C-9.47529297 9.928125 -8.89199219 9.309375 -8.29101562 8.671875 C-7.67935547 8.03765625 -7.06769531 7.4034375 -6.4375 6.75 C-5.82197266 6.1003125 -5.20644531 5.450625 -4.57226562 4.78125 C-3.05456842 3.18119713 -1.53042885 1.58786356 0 0 Z " fill="#C3C3C2" transform="translate(130,264)"/>
<path d="M0 0 C3.77839007 1.50796734 5.64563017 3.6980128 8.125 6.875 C8.80820312 7.73867188 9.49140625 8.60234375 10.1953125 9.4921875 C11.72665173 11.62015241 12.92554621 13.6184787 14 16 C5.30169972 8.66997167 5.30169972 8.66997167 3 6 C3 5.01 3 4.02 3 3 C2.34 3 1.68 3 1 3 C0.67 2.01 0.34 1.02 0 0 Z " fill="#64AD85" transform="translate(968,340)"/>
<path d="M0 0 C3.94622865 1.32686782 6.2669423 2.92813336 9.125 5.9375 C10.11886719 6.97197266 10.11886719 6.97197266 11.1328125 8.02734375 C11.74898437 8.67832031 12.36515625 9.32929687 13 10 C13.99664245 11.00334632 14.99533082 12.00469109 16 13 C12.01328937 11.63312778 9.11505367 9.84804907 6 7 C6 6.34 6 5.68 6 5 C5.195625 4.731875 4.39125 4.46375 3.5625 4.1875 C2.716875 3.795625 1.87125 3.40375 1 3 C0.67 2.01 0.34 1.02 0 0 Z " fill="#68AD88" transform="translate(664,105)"/>
<path d="M0 0 C1.2065625 0.0309375 1.2065625 0.0309375 2.4375 0.0625 C3.0975 1.3825 3.7575 2.7025 4.4375 4.0625 C2.7875 3.7325 1.1375 3.4025 -0.5625 3.0625 C-0.8925 4.7125 -1.2225 6.3625 -1.5625 8.0625 C-2.5525 8.0625 -3.5425 8.0625 -4.5625 8.0625 C-3.54737544 0.08652135 -3.54737544 0.08652135 0 0 Z " fill="#60B792" transform="translate(761.5625,103.9375)"/>
<path d="M0 0 C0.33 0 0.66 0 1 0 C1 3.96 1 7.92 1 12 C1.66 12 2.32 12 3 12 C3 16.29 3 20.58 3 25 C2.67 25 2.34 25 2 25 C2 22.03 2 19.06 2 16 C1.34 16 0.68 16 0 16 C0 10.72 0 5.44 0 0 Z " fill="#77C19B" transform="translate(462,339)"/>
<path d="M0 0 C4.08596252 1.52763464 5.79826179 4.11084191 8.25 7.625 C8.95640625 8.62789062 9.6628125 9.63078125 10.390625 10.6640625 C11.18726563 11.82035156 11.18726563 11.82035156 12 13 C11.67 13.66 11.34 14.32 11 15 C6.62294157 10.26638344 2.9826263 5.7266425 0 0 Z " fill="#63B089" transform="translate(528,114)"/>
<path d="M0 0 C0 3.46132304 -0.35176518 3.74508628 -2.625 6.13671875 C-3.16640625 6.71357422 -3.7078125 7.29042969 -4.265625 7.88476562 C-4.83796875 8.47966797 -5.4103125 9.07457031 -6 9.6875 C-6.57234375 10.29400391 -7.1446875 10.90050781 -7.734375 11.52539062 C-9.1496339 13.02320629 -10.57397277 14.5124329 -12 16 C-12 11.92092669 -10.43302134 10.94256832 -7.6875 8 C-6.48673828 6.700625 -6.48673828 6.700625 -5.26171875 5.375 C-3.53053313 3.55710561 -1.78926671 1.76031418 0 0 Z " fill="#C2C2C2" transform="translate(160,298)"/>
<path d="M0 0 C2.10407096 1.69636171 2.93240678 2.54981464 3.34057617 5.26831055 C3.32486572 6.13238525 3.30915527 6.99645996 3.29296875 7.88671875 C3.28330078 8.82451172 3.27363281 9.76230469 3.26367188 10.72851562 C3.23853516 11.70498047 3.21339844 12.68144531 3.1875 13.6875 C3.17396484 14.67556641 3.16042969 15.66363281 3.14648438 16.68164062 C3.11112203 19.12164231 3.06177033 21.56054719 3 24 C2.67 24 2.34 24 2 24 C2 18.72 2 13.44 2 8 C1.34 8 0.68 8 0 8 C0 5.36 0 2.72 0 0 Z " fill="#70AC86" transform="translate(758,273)"/>
<path d="M0 0 C3.96 0.33 7.92 0.66 12 1 C12 1.99 12 2.98 12 4 C7.45194365 4.17835515 4.1205746 3.99785435 0 2 C0 1.34 0 0.68 0 0 Z " fill="#77BC92" transform="translate(658,369)"/>
<path d="M0 0 C3.59309034 1.19769678 4.42093253 2.4676789 6.6875 5.4375 C7.31011719 6.24058594 7.93273437 7.04367188 8.57421875 7.87109375 C10 10 10 10 10 12 C9.01 11.67 8.02 11.34 7 11 C7 10.34 7 9.68 7 9 C6.34 9 5.68 9 5 9 C5 8.01 5 7.02 5 6 C4.360625 5.7525 3.72125 5.505 3.0625 5.25 C1 4 1 4 0.25 1.875 C0.1675 1.25625 0.085 0.6375 0 0 Z " fill="#5ABA95" transform="translate(602,207)"/>
<path d="M0 0 C-0.33 0.99 -0.66 1.98 -1 3 C-4.96 3 -8.92 3 -13 3 C-13 2.34 -13 1.68 -13 1 C-11.58366664 0.83052421 -10.16691467 0.66454493 -8.75 0.5 C-7.56664062 0.36078125 -7.56664062 0.36078125 -6.359375 0.21875 C-4 0 -4 0 0 0 Z " fill="#5CAC7F" transform="translate(520,370)"/>
<path d="M0 0 C0.66 0.33 1.32 0.66 2 1 C2 6.94 2 12.88 2 19 C1.67 19 1.34 19 1 19 C0.93941406 18.26394531 0.87882812 17.52789062 0.81640625 16.76953125 C0.73261719 15.79371094 0.64882813 14.81789063 0.5625 13.8125 C0.48128906 12.84957031 0.40007812 11.88664062 0.31640625 10.89453125 C0.05613331 8.01937852 0.05613331 8.01937852 -0.59765625 5.32421875 C-1 3 -1 3 0 0 Z " fill="#5AB58B" transform="translate(464,105)"/>
<path d="M0 0 C3.79379058 1.49041773 5.68343758 3.69062512 8 7 C8 7.66 8 8.32 8 9 C8.99 9.33 9.98 9.66 11 10 C10.67 10.99 10.34 11.98 10 13 C2.51708428 4.738041 2.51708428 4.738041 0 0 Z " fill="#67AD85" transform="translate(540,221)"/>
<path d="M0 0 C7.68490153 5.0940919 7.68490153 5.0940919 9 8.875 C9 9.57625 9 10.2775 9 11 C8.01 10.34 7.02 9.68 6 9 C6 8.01 6 7.02 6 6 C5.401875 5.731875 4.80375 5.46375 4.1875 5.1875 C2.02775192 4.01506533 0.64209744 2.80630718 -1 1 C-0.67 0.67 -0.34 0.34 0 0 Z " fill="#68AE87" transform="translate(801,138)"/>
<path d="M0 0 C2.96179996 1.37512141 5.42143842 3.00369426 8 5 C8.99 5.66 9.98 6.32 11 7 C8.3125 7.375 8.3125 7.375 5 7 C2.88591593 5.18090441 1.61300175 3.32462017 0 1 C0 0.67 0 0.34 0 0 Z " fill="#68AA81" transform="translate(652,366)"/>
<path d="M0 0 C2.70438996 0.36405249 3.74406383 0.68142682 5.484375 2.84765625 C5.90203125 3.57855469 6.3196875 4.30945313 6.75 5.0625 C7.39195312 6.16271484 7.39195312 6.16271484 8.046875 7.28515625 C8.36140625 7.85105469 8.6759375 8.41695313 9 9 C5.78034336 7.63783758 4.18312565 6.27468847 2.25 3.375 C1.82203125 2.74335938 1.3940625 2.11171875 0.953125 1.4609375 C0.63859375 0.97882813 0.3240625 0.49671875 0 0 Z " fill="#69B088" transform="translate(562,249)"/>
<path d="M0 0 C0.48210938 0.42152344 0.96421875 0.84304687 1.4609375 1.27734375 C2.09257813 1.82519531 2.72421875 2.37304688 3.375 2.9375 C4.00148438 3.48277344 4.62796875 4.02804688 5.2734375 4.58984375 C6.95632334 6.06958624 6.95632334 6.06958624 9 7 C8.67 7.99 8.34 8.98 8 10 C5.95880212 8.38405168 3.95927063 6.7143618 2 5 C2 4.34 2 3.68 2 3 C1.34 3 0.68 3 0 3 C0 2.01 0 1.02 0 0 Z " fill="#6BAE88" transform="translate(687,124)"/>
<path d="M0 0 C4.07763771 2.86536704 6.02677065 5.43041625 8 10 C4.20401451 8.50871999 2.28279601 6.34266559 0 3 C0 2.01 0 1.02 0 0 Z " fill="#67AE84" transform="translate(645,354)"/>
<path d="M0 0 C1.15518918 0.90484792 2.29885406 1.8244206 3.4375 2.75 C4.07558594 3.26046875 4.71367188 3.7709375 5.37109375 4.296875 C7.18810554 6.19667629 7.60423197 7.43586908 8 10 C4.82537057 7.59757773 2.14248259 5.38286724 0 2 C0 1.34 0 0.68 0 0 Z " fill="#66AF88" transform="translate(554,238)"/>
<path d="M0 0 C4.24822374 0.47202486 6.19989709 2.96655518 9 6 C8.67 6.66 8.34 7.32 8 8 C7.34 7.67 6.68 7.34 6 7 C6 6.34 6 5.68 6 5 C5.38125 4.731875 4.7625 4.46375 4.125 4.1875 C2 3 2 3 0 0 Z " fill="#64AF86" transform="translate(790,130)"/>
<path d="M0 0 C3.58237455 4.67266246 4.11073636 7.02023637 4 13 C3.67 13 3.34 13 3 13 C2.67 11.35 2.34 9.7 2 8 C1.34 8 0.68 8 0 8 C0 5.36 0 2.72 0 0 Z " fill="#7DBF9B" transform="translate(657,120)"/>
<path d="M0 0 C0.33 0 0.66 0 1 0 C1.08131463 1.43655854 1.13933559 2.8744483 1.1875 4.3125 C1.23970703 5.51326172 1.23970703 5.51326172 1.29296875 6.73828125 C0.93801608 9.47851584 0.10633718 10.29171079 -2 12 C-2.26252625 7.66831683 -1.29243536 4.1196377 0 0 Z " fill="#67B786" transform="translate(814,303)"/>
<path d="M0 0 C3.25543229 0.34879632 4.01873107 1.02133261 6.25 3.5625 C6.8275 4.366875 7.405 5.17125 8 6 C5 6 5 6 3.61328125 4.6875 C2.40885417 3.125 1.20442708 1.5625 0 0 Z " fill="#69B08A" transform="translate(542,132)"/>
<path d="M0 0 C3.72940389 1.24313463 4.84656811 2.76985216 7 6 C6.67 6.99 6.34 7.98 6 9 C4.99712471 7.68969568 3.99777175 6.37669473 3 5.0625 C2.443125 4.33160156 1.88625 3.60070312 1.3125 2.84765625 C0 1 0 1 0 0 Z " fill="#65AE82" transform="translate(982,357)"/>
<path d="M0 0 C5.57142857 5.14285714 5.57142857 5.14285714 6 9 C0.42857143 3.85714286 0.42857143 3.85714286 0 0 Z " fill="#68B087" transform="translate(611,310)"/>
<path d="M0 0 C4.20626034 1.50223584 5.73900021 4.28550034 8 8 C4.63820226 6.55922954 2.40843732 4.75249979 0 2 C0 1.34 0 0.68 0 0 Z " fill="#63AE84" transform="translate(618,228)"/>
<path d="M0 0 C2.31 1.98 4.62 3.96 7 6 C6.01 6.33 5.02 6.66 4 7 C2 5.1875 2 5.1875 0 3 C0 2.01 0 1.02 0 0 Z " fill="#65B088" transform="translate(697,133)"/>
<path d="M0 0 C3.67420866 0.30618405 4.78135513 0.75771784 7.3125 3.5625 C8.1478125 4.7690625 8.1478125 4.7690625 9 6 C5.06326356 4.68775452 2.77280706 3.08089673 0 0 Z " fill="#63B089" transform="translate(775,117)"/>
<path d="M0 0 C0.78375 0.474375 1.5675 0.94875 2.375 1.4375 C3.88948678 2.33898023 5.4235897 3.21179485 7 4 C7 4.66 7 5.32 7 6 C4.625 5.8125 4.625 5.8125 2 5 C0.6875 2.4375 0.6875 2.4375 0 0 Z " fill="#65B487" transform="translate(464,366)"/>
<path d="M0 0 C1.70884005 1.62339805 3.37446717 3.29319053 5 5 C5 5.66 5 6.32 5 7 C3.0625 6.3125 3.0625 6.3125 1 5 C0.25 2.375 0.25 2.375 0 0 Z " fill="#7EBC99" transform="translate(583,273)"/>
<path d="M0 0 C1.65 0 3.3 0 5 0 C5.66 1.32 6.32 2.64 7 4 C4.36 3.67 1.72 3.34 -1 3 C-0.67 2.01 -0.34 1.02 0 0 Z " fill="#5EAC84" transform="translate(759,104)"/>
</svg>
